    function trans(id, state) {
        $('svg [id^=state]').attr('style','fill: white');
        $('svg [id^=d]').attr('style','stroke: black');
        $('svg #state-'+state).attr('style','fill: lightcoral');
        $('svg #d-'+id).attr('style','stroke: red; stroke-width:2');
    }
	
	
<svg
   xmlns:dc="http://purl.org/dc/elements/1.1/"
   xmlns:cc="http://creativecommons.org/ns#"
   xmlns:rdf="http://www.w3.org/1999/02/22-rdf-syntax-ns#"
   xmlns:svg="http://www.w3.org/2000/svg"
   xmlns="http://www.w3.org/2000/svg"
   xmlns:sodipodi="http://sodipodi.sourceforge.net/DTD/sodipodi-0.dtd"
   xmlns:inkscape="http://www.inkscape.org/namespaces/inkscape"
   version="1.1"
   viewBox="0.0 0.0 624.0 331.501312335958"
   fill="none"
   stroke="none"
   stroke-linecap="square"
   stroke-miterlimit="10"
   id="svg249"
   sodipodi:docname="PLAP_statechart2.svg"
   inkscape:version="0.92.2 5c3e80d, 2017-08-06">
  <metadata
     id="metadata255">
    <rdf:RDF>
      <cc:Work
         rdf:about="">
        <dc:format>image/svg+xml</dc:format>
        <dc:type
           rdf:resource="http://purl.org/dc/dcmitype/StillImage" />
        <dc:title></dc:title>
      </cc:Work>
    </rdf:RDF>
  </metadata>
  <defs
     id="defs253" />
  <sodipodi:namedview
     pagecolor="#ffffff"
     bordercolor="#666666"
     borderopacity="1"
     objecttolerance="10"
     gridtolerance="10"
     guidetolerance="10"
     inkscape:pageopacity="0"
     inkscape:pageshadow="2"
     inkscape:window-width="1277"
     inkscape:window-height="813"
     id="namedview251"
     showgrid="false"
     inkscape:snap-text-baseline="false"
     inkscape:snap-global="false"
     inkscape:zoom="1.326252"
     inkscape:cx="277.05462"
     inkscape:cy="128.29286"
     inkscape:window-x="53"
     inkscape:window-y="0"
     inkscape:window-maximized="0"
     inkscape:current-layer="svg249" />
  <clipPath
     id="p.0">
    <path
       d="m0 0l624.0 0l0 331.5013l-624.0 0l0 -331.5013z"
       clip-rule="nonzero"
       id="path2" />
  </clipPath>
  <path
     style="fill:#000000;fill-opacity:0;fill-rule:evenodd"
     inkscape:connector-curvature="0"
     id="path5"
     d="M 0,0 H 624 V 331.5013 H 0 Z" />
  <path
     style="fill:#000000;fill-opacity:0;fill-rule:evenodd"
     inkscape:connector-curvature="0"
     id="path7"
     d="m 42.624672,50.679825 v 0 c 0,-10.85582 8.800381,-19.656202 19.656204,-19.656202 H 501.11018 c 5.21316,0 10.21276,2.070913 13.89901,5.75717 3.68628,3.686252 5.7572,8.685883 5.7572,13.899033 V 287.39893 c 0,10.8558 -8.80038,19.65618 -19.65622,19.65618 H 62.280875 c -10.855824,0 -19.656204,-8.80038 -19.656204,-19.65618 z" />
  <path
     style="fill-rule:evenodd;stroke:#000000;stroke-width:1;stroke-linecap:butt;stroke-linejoin:round"
     inkscape:connector-curvature="0"
     id="path9"
     d="m 42.624672,50.679825 v 0 c 0,-10.85582 8.800381,-19.656202 19.656204,-19.656202 H 501.11018 c 5.21316,0 10.21276,2.070913 13.89901,5.75717 3.68628,3.686252 5.7572,8.685883 5.7572,13.899033 V 287.39893 c 0,10.8558 -8.80038,19.65618 -19.65622,19.65618 H 62.280875 c -10.855824,0 -19.656204,-8.80038 -19.656204,-19.65618 z" />
  <path
     style="fill:#000000;fill-opacity:0;fill-rule:evenodd"
     inkscape:connector-curvature="0"
     id="path11"
     d="m 362.81366,225.3327 v 0 c 0,-2.65561 2.15277,-4.80841 4.80838,-4.80841 h 95.26511 c 1.27527,0 2.49829,0.50661 3.40006,1.40836 0.90173,0.90174 1.40832,2.12478 1.40832,3.40005 v 19.2336 c 0,2.65559 -2.15277,4.80839 -4.80838,4.80839 h -95.26511 c -2.65561,0 -4.80838,-2.1528 -4.80838,-4.80839 z" />
  <path
     style="fill-rule:evenodd;stroke:#000000;stroke-width:1;stroke-linecap:butt;stroke-linejoin:round"
     inkscape:connector-curvature="0"
     id="d-output"
     d="m 362.81366,225.3327 v 0 c 0,-2.65561 2.15277,-4.80841 4.80838,-4.80841 h 95.26511 c 1.27527,0 2.49829,0.50661 3.40006,1.40836 0.90173,0.90174 1.40832,2.12478 1.40832,3.40005 v 19.2336 c 0,2.65559 -2.15277,4.80839 -4.80838,4.80839 h -95.26511 c -2.65561,0 -4.80838,-2.1528 -4.80838,-4.80839 z"
     inkscape:label="#path13" />
  <path
     style="fill:#000000;fill-rule:evenodd"
     inkscape:connector-curvature="0"
     id="path15"
     d="m 18.16187,31.334574 v 0 c 0,-3.600723 2.918962,-6.519684 6.519686,-6.519684 v 0 c 1.729128,0 3.387434,0.686892 4.610113,1.909571 1.222677,1.222677 1.90957,2.880985 1.90957,4.610113 v 0 c 0,3.600721 -2.918962,6.519685 -6.519684,6.519685 v 0 c -3.600723,0 -6.519685,-2.918964 -6.519685,-6.519685 z" />
  <path
     style="fill-rule:evenodd;stroke:#000000;stroke-width:2;stroke-linecap:butt;stroke-linejoin:round"
     inkscape:connector-curvature="0"
     id="path17"
     d="m 18.16187,31.334574 v 0 c 0,-3.600723 2.918962,-6.519684 6.519686,-6.519684 v 0 c 1.729128,0 3.387434,0.686892 4.610113,1.909571 1.222677,1.222677 1.90957,2.880985 1.90957,4.610113 v 0 c 0,3.600721 -2.918962,6.519685 -6.519684,6.519685 v 0 c -3.600723,0 -6.519685,-2.918964 -6.519685,-6.519685 z" />
  <path
     style="fill:#000000;fill-opacity:0;fill-rule:evenodd"
     inkscape:connector-curvature="0"
     id="path19"
     d="M 25.741367,37.241383 43.001209,54.501225" />
  <path
     style="fill-rule:evenodd;stroke:#000000;stroke-width:1;stroke-linecap:butt;stroke-linejoin:round"
     inkscape:connector-curvature="0"
     id="path21"
     d="m 25.741367,37.241383 13.0172,13.017204" />
  <path
     style="fill:#000000;fill-rule:evenodd;stroke:#000000;stroke-width:1;stroke-linecap:butt"
     inkscape:connector-curvature="0"
     id="path23"
     d="m 37.59062,51.426537 4.376869,2.040966 -2.040966,-4.376869 z" />
  <path
     style="fill:#ffffff;fill-rule:evenodd"
     inkscape:connector-curvature="0"
     id="state-2"
     d="m 338.66934,81.90589 v 0 c 0,-3.766045 3.05298,-6.819031 6.81903,-6.819031 h 27.2753 v 0 c 1.80853,0 3.54297,0.71843 4.82181,1.997246 1.27881,1.278816 1.99722,3.013267 1.99722,4.821785 v 206.17297 c 0,3.76605 -3.05298,6.81903 -6.81903,6.81903 h -27.2753 c -3.76605,0 -6.81903,-3.05298 -6.81903,-6.81903 z"
     inkscape:label="#path25" />
  <path
     style="fill-rule:evenodd;stroke:#000000;stroke-width:1;stroke-linecap:butt;stroke-linejoin:round"
     inkscape:connector-curvature="0"
     id="path27"
     d="m 338.66934,81.90589 v 0 c 0,-3.766045 3.05298,-6.819031 6.81903,-6.819031 h 27.2753 v 0 c 1.80853,0 3.54297,0.71843 4.82181,1.997246 1.27881,1.278816 1.99722,3.013267 1.99722,4.821785 v 206.17297 c 0,3.76605 -3.05298,6.81903 -6.81903,6.81903 h -27.2753 c -3.76605,0 -6.81903,-3.05298 -6.81903,-6.81903 z" />
  <path
     style="fill:#000000;fill-opacity:0;fill-rule:evenodd"
     inkscape:connector-curvature="0"
     id="path29"
     d="m 394.1746,192.33089 h 58.2677 v 23.49606 h -58.2677 z" />
  <path
     style="fill:#000000;fill-rule:nonzero"
     inkscape:connector-curvature="0"
     id="path31"
     d="m 403.1746,212.9915 2.48437,-8.875 h 0.84375 l -2.48437,8.875 z m 3.74023,-3.25 q 0,-1.73438 0.95313,-2.5625 0.79687,-0.6875 1.95312,-0.6875 1.28125,0 2.09375,0.84375 0.82813,0.82812 0.82813,2.3125 0,1.20312 -0.35938,1.89062 -0.35937,0.6875 -1.0625,1.07813 -0.6875,0.375 -1.5,0.375 -1.29687,0 -2.10937,-0.82813 -0.79688,-0.84375 -0.79688,-2.42187 z m 1.07813,0 q 0,1.1875 0.51562,1.78125 0.53125,0.59375 1.3125,0.59375 0.79688,0 1.3125,-0.59375 0.51563,-0.59375 0.51563,-1.8125 0,-1.15625 -0.53125,-1.75 -0.51563,-0.59375 -1.29688,-0.59375 -0.78125,0 -1.3125,0.59375 -0.51562,0.57812 -0.51562,1.78125 z m 10.06445,3.10937 V 211.929 q -0.73437,1.0625 -1.98437,1.0625 -0.54688,0 -1.03125,-0.20313 -0.46875,-0.21875 -0.70313,-0.53125 -0.23437,-0.32812 -0.32812,-0.79687 -0.0625,-0.29688 -0.0625,-0.98438 v -3.84375 h 1.0625 v 3.45313 q 0,0.8125 0.0625,1.10937 0.0937,0.40625 0.40625,0.65625 0.32812,0.23438 0.8125,0.23438 0.46875,0 0.875,-0.23438 0.42187,-0.25 0.59375,-0.67187 0.1875,-0.42188 0.1875,-1.21875 v -3.32813 h 1.04687 v 6.21875 z m 4.89258,-0.9375 0.15625,0.92188 q -0.45312,0.0937 -0.79687,0.0937 -0.57813,0 -0.89063,-0.17188 -0.3125,-0.1875 -0.45312,-0.48437 -0.125,-0.29688 -0.125,-1.25 v -3.57813 h -0.76563 v -0.8125 h 0.76563 v -1.54687 l 1.04687,-0.625 v 2.17187 h 1.0625 v 0.8125 h -1.0625 v 3.64063 q 0,0.45312 0.0469,0.57812 0.0625,0.125 0.1875,0.20313 0.125,0.0781 0.35937,0.0781 0.1875,0 0.46875,-0.0312 z m 1.03711,3.32813 v -8.60938 h 0.95312 v 0.79688 q 0.34375,-0.46875 0.76563,-0.70313 0.4375,-0.23437 1.04687,-0.23437 0.79688,0 1.40625,0.40625 0.60938,0.40625 0.90625,1.15625 0.3125,0.75 0.3125,1.64062 0,0.95313 -0.34375,1.71875 -0.32812,0.76563 -0.98437,1.17188 -0.65625,0.40625 -1.375,0.40625 -0.53125,0 -0.95313,-0.21875 -0.42187,-0.23438 -0.6875,-0.5625 v 3.03125 z m 0.95312,-5.46875 q 0,1.20312 0.48438,1.78125 0.48437,0.5625 1.17187,0.5625 0.70313,0 1.20313,-0.59375 0.5,-0.59375 0.5,-1.84375 0,-1.1875 -0.48438,-1.76563 -0.48437,-0.59375 -1.17187,-0.59375 -0.67188,0 -1.1875,0.625 -0.51563,0.625 -0.51563,1.82813 z m 9.79883,3.07812 V 211.929 q -0.73437,1.0625 -1.98437,1.0625 -0.54688,0 -1.03125,-0.20313 -0.46875,-0.21875 -0.70313,-0.53125 -0.23437,-0.32812 -0.32812,-0.79687 -0.0625,-0.29688 -0.0625,-0.98438 v -3.84375 h 1.0625 v 3.45313 q 0,0.8125 0.0625,1.10937 0.0937,0.40625 0.40625,0.65625 0.32812,0.23438 0.8125,0.23438 0.46875,0 0.875,-0.23438 0.42187,-0.25 0.59375,-0.67187 0.1875,-0.42188 0.1875,-1.21875 v -3.32813 h 1.04687 v 6.21875 z m 4.89258,-0.9375 0.15625,0.92188 q -0.45312,0.0937 -0.79687,0.0937 -0.57813,0 -0.89063,-0.17188 -0.3125,-0.1875 -0.45312,-0.48437 -0.125,-0.29688 -0.125,-1.25 v -3.57813 h -0.76563 v -0.8125 h 0.76563 v -1.54687 l 1.04687,-0.625 v 2.17187 h 1.0625 v 0.8125 h -1.0625 v 3.64063 q 0,0.45312 0.0469,0.57812 0.0625,0.125 0.1875,0.20313 0.125,0.0781 0.35937,0.0781 0.1875,0 0.46875,-0.0312 z" />
  <path
     style="fill:#000000;fill-opacity:0;fill-rule:evenodd"
     inkscape:connector-curvature="0"
     id="state-3"
     d="m 467.42902,81.90589 v 0 c 0,-3.766045 3.05298,-6.819031 6.81903,-6.819031 h 27.27533 v 0 c 1.8085,0 3.54297,0.71843 4.82178,1.997246 1.27881,1.278816 1.99725,3.013267 1.99725,4.821785 v 78.86587 c 0,3.76605 -3.05301,6.81903 -6.81903,6.81903 h -27.27533 c -3.76605,0 -6.81903,-3.05298 -6.81903,-6.81903 z"
     inkscape:label="#path33" />
  <path
     style="fill-rule:evenodd;stroke:#000000;stroke-width:1;stroke-linecap:butt;stroke-linejoin:round"
     inkscape:connector-curvature="0"
     id="path35"
     d="m 467.42902,81.90589 v 0 c 0,-3.766045 3.05298,-6.819031 6.81903,-6.819031 h 27.27533 v 0 c 1.8085,0 3.54297,0.71843 4.82178,1.997246 1.27881,1.278816 1.99725,3.013267 1.99725,4.821785 v 78.86587 c 0,3.76605 -3.05301,6.81903 -6.81903,6.81903 h -27.27533 c -3.76605,0 -6.81903,-3.05298 -6.81903,-6.81903 z" />
  <path
     style="fill:#000000;fill-opacity:0;fill-rule:evenodd"
     inkscape:connector-curvature="0"
     id="path37"
     d="m 467.37534,101.24934 -87.93701,0.12599" />
  <path
     style="fill-rule:evenodd;stroke:#000000;stroke-width:1;stroke-linecap:butt;stroke-linejoin:round"
     inkscape:connector-curvature="0"
     id="d-prompt"
     d="m 461.37534,101.25794 -81.93701,0.11739"
     inkscape:label="#path39" />
  <path
     style="fill:#000000;fill-rule:evenodd;stroke:#000000;stroke-width:1;stroke-linecap:butt"
     inkscape:connector-curvature="0"
     id="path41"
     d="m 461.37772,102.90967 4.53571,-1.65823 -4.54047,-1.645229 z" />
  <path
     style="fill:#000000;fill-opacity:0;fill-rule:evenodd"
     inkscape:connector-curvature="0"
     id="path43"
     d="m 391.7599,73.883446 h 67.84253 V 97.379509 H 391.7599 Z" />
  <path
     style="fill:#000000;fill-rule:nonzero"
     inkscape:connector-curvature="0"
     id="path45"
     d="m 400.7599,94.544075 2.48438,-8.875 h 0.84375 l -2.48438,8.875 z m 4.13086,2.25 V 88.1847 h 0.95312 v 0.796875 q 0.34375,-0.46875 0.76563,-0.703125 0.4375,-0.234375 1.04687,-0.234375 0.79688,0 1.40625,0.40625 0.60938,0.40625 0.90625,1.15625 0.3125,0.75 0.3125,1.640625 0,0.953125 -0.34375,1.71875 -0.32812,0.765625 -0.98437,1.171875 -0.65625,0.40625 -1.375,0.40625 -0.53125,0 -0.95313,-0.21875 -0.42187,-0.234375 -0.6875,-0.5625 v 3.03125 z m 0.95312,-5.46875 q 0,1.203125 0.48438,1.78125 0.48437,0.5625 1.17187,0.5625 0.70313,0 1.20313,-0.59375 0.5,-0.59375 0.5,-1.84375 0,-1.1875 -0.48438,-1.765625 -0.48437,-0.59375 -1.17187,-0.59375 -0.67188,0 -1.1875,0.625 -0.51563,0.625 -0.51563,1.828125 z m 5.70508,3.078125 V 88.1847 h 0.95313 v 0.9375 q 0.35937,-0.65625 0.65625,-0.859375 0.3125,-0.21875 0.6875,-0.21875 0.53125,0 1.07812,0.328125 l -0.35937,0.984375 q -0.39063,-0.234375 -0.76563,-0.234375 -0.35937,0 -0.64062,0.21875 -0.26563,0.203125 -0.375,0.578125 -0.1875,0.5625 -0.1875,1.21875 v 3.265625 z m 3.6211,-3.109375 q 0,-1.734375 0.95312,-2.5625 0.79688,-0.6875 1.95313,-0.6875 1.28125,0 2.09375,0.84375 0.82812,0.828125 0.82812,2.3125 0,1.203125 -0.35937,1.890625 -0.35938,0.6875 -1.0625,1.078125 -0.6875,0.375 -1.5,0.375 -1.29688,0 -2.10938,-0.828125 -0.79687,-0.84375 -0.79687,-2.421875 z m 1.07812,0 q 0,1.1875 0.51563,1.78125 0.53125,0.59375 1.3125,0.59375 0.79687,0 1.3125,-0.59375 0.51562,-0.59375 0.51562,-1.8125 0,-1.15625 -0.53125,-1.75 -0.51562,-0.59375 -1.29687,-0.59375 -0.78125,0 -1.3125,0.59375 -0.51563,0.578125 -0.51563,1.78125 z m 5.98633,3.109375 V 88.1847 h 0.9375 v 0.875 q 0.29687,-0.46875 0.78125,-0.734375 0.48437,-0.28125 1.10937,-0.28125 0.6875,0 1.125,0.28125 0.45313,0.28125 0.625,0.796875 0.75,-1.078125 1.92188,-1.078125 0.9375,0 1.42187,0.515625 0.5,0.5 0.5,1.578125 v 4.265625 h -1.04687 v -3.921875 q 0,-0.625 -0.10938,-0.90625 -0.0937,-0.28125 -0.35937,-0.453125 -0.26563,-0.171875 -0.64063,-0.171875 -0.65625,0 -1.09375,0.4375 -0.42187,0.4375 -0.42187,1.40625 v 3.609375 h -1.0625 v -4.046875 q 0,-0.703125 -0.26563,-1.046875 -0.25,-0.359375 -0.82812,-0.359375 -0.45313,0 -0.82813,0.234375 -0.375,0.234375 -0.54687,0.6875 -0.17188,0.453125 -0.17188,1.296875 v 3.234375 z m 9.99609,2.390625 V 88.1847 h 0.95313 v 0.796875 q 0.34375,-0.46875 0.76562,-0.703125 0.4375,-0.234375 1.04688,-0.234375 0.79687,0 1.40625,0.40625 0.60937,0.40625 0.90625,1.15625 0.3125,0.75 0.3125,1.640625 0,0.953125 -0.34375,1.71875 -0.32813,0.765625 -0.98438,1.171875 -0.65625,0.40625 -1.375,0.40625 -0.53125,0 -0.95312,-0.21875 -0.42188,-0.234375 -0.6875,-0.5625 v 3.03125 z m 0.95313,-5.46875 q 0,1.203125 0.48437,1.78125 0.48438,0.5625 1.17188,0.5625 0.70312,0 1.20312,-0.59375 0.5,-0.59375 0.5,-1.84375 0,-1.1875 -0.48437,-1.765625 -0.48438,-0.59375 -1.17188,-0.59375 -0.67187,0 -1.1875,0.625 -0.51562,0.625 -0.51562,1.828125 z m 8.01758,2.140625 0.15625,0.921875 q -0.45313,0.09375 -0.79688,0.09375 -0.57812,0 -0.89062,-0.171875 -0.3125,-0.1875 -0.45313,-0.484375 -0.125,-0.296875 -0.125,-1.25 V 88.9972 h -0.76562 v -0.8125 h 0.76562 v -1.546875 l 1.04688,-0.625 V 88.1847 h 1.0625 v 0.8125 h -1.0625 v 3.640625 q 0,0.453125 0.0469,0.578125 0.0625,0.125 0.1875,0.203125 0.125,0.07813 0.35938,0.07813 0.1875,0 0.46875,-0.03125 z" />
  <path
     style="fill:#000000;fill-opacity:0;fill-rule:evenodd"
     inkscape:connector-curvature="0"
     id="path47"
     d="m 389.18277,102.63082 h 81.85828 v 23.49606 h -81.85828 z" />
  <path
     style="fill:#000000;fill-rule:nonzero"
     inkscape:connector-curvature="0"
     id="path49"
     d="m 400.62027,123.15083 h -1.64063 v -6.21875 h 1.53125 v 0.875 q 0.39063,-0.625 0.70313,-0.8125 0.3125,-0.20313 0.70312,-0.20313 0.5625,0 1.09375,0.3125 l -0.51562,1.42188 q -0.42188,-0.26563 -0.76563,-0.26563 -0.35937,0 -0.59375,0.20313 -0.23437,0.1875 -0.375,0.6875 -0.14062,0.48437 -0.14062,2.07812 z m 6.70117,-1.98438 1.64063,0.28125 q -0.3125,0.90625 -1,1.375 -0.6875,0.46875 -1.70313,0.46875 -1.625,0 -2.40625,-1.0625 -0.625,-0.84375 -0.625,-2.14062 0,-1.54688 0.8125,-2.42188 0.8125,-0.875 2.04688,-0.875 1.39062,0 2.1875,0.92188 0.8125,0.90625 0.76562,2.79687 h -4.125 q 0.0312,0.73438 0.40625,1.14063 0.375,0.40625 0.95313,0.40625 0.375,0 0.64062,-0.20313 0.26563,-0.21875 0.40625,-0.6875 z m 0.0937,-1.65625 q -0.0156,-0.71875 -0.375,-1.09375 -0.34375,-0.375 -0.85937,-0.375 -0.53125,0 -0.89063,0.39063 -0.34375,0.40625 -0.34375,1.07812 z m 2.39258,1.85938 1.65625,-0.25 q 0.10938,0.48437 0.42188,0.73437 0.32812,0.25 0.90625,0.25 0.64062,0 0.95312,-0.23437 0.21875,-0.17188 0.21875,-0.4375 0,-0.1875 -0.10937,-0.3125 -0.125,-0.125 -0.54688,-0.21875 -2,-0.4375 -2.53125,-0.79688 -0.73437,-0.51562 -0.73437,-1.40625 0,-0.8125 0.625,-1.35937 0.64062,-0.54688 1.98437,-0.54688 1.28125,0 1.90625,0.42188 0.625,0.40625 0.85938,1.21875 l -1.5625,0.28125 q -0.0937,-0.35938 -0.375,-0.54688 -0.28125,-0.20312 -0.79688,-0.20312 -0.64062,0 -0.92187,0.1875 -0.1875,0.125 -0.1875,0.32812 0,0.1875 0.15625,0.3125 0.21875,0.15625 1.53125,0.45313 1.32812,0.29687 1.84375,0.73437 0.51562,0.4375 0.51562,1.21875 0,0.85938 -0.71875,1.48438 -0.70312,0.60937 -2.10937,0.60937 -1.26563,0 -2.01563,-0.51562 -0.73437,-0.51563 -0.96875,-1.40625 z m 7.20508,-4.4375 h 1.53125 v 0.90625 q 0.3125,-0.46875 0.8125,-0.75 0.51562,-0.29688 1.14062,-0.29688 1.07813,0 1.82813,0.84375 0.76562,0.84375 0.76562,2.375 0,1.54688 -0.76562,2.42188 -0.76563,0.85937 -1.84375,0.85937 -0.51563,0 -0.9375,-0.20312 -0.42188,-0.20313 -0.875,-0.70313 v 3.14063 h -1.65625 z m 1.625,3 q 0,1.04687 0.42187,1.54687 0.42188,0.5 1.01563,0.5 0.57812,0 0.95312,-0.45312 0.375,-0.46875 0.375,-1.51563 0,-0.96875 -0.39062,-1.4375 -0.39063,-0.48437 -0.96875,-0.48437 -0.60938,0 -1.01563,0.46875 -0.39062,0.46875 -0.39062,1.375 z m 5.37695,0.0156 q 0,-0.8125 0.40625,-1.57812 0.40625,-0.78125 1.14063,-1.17188 0.73437,-0.40625 1.65625,-0.40625 1.40625,0 2.3125,0.92188 0.90625,0.90625 0.90625,2.3125 0,1.40625 -0.92188,2.34375 -0.90625,0.92187 -2.28125,0.92187 -0.85937,0 -1.64062,-0.39062 -0.76563,-0.39063 -1.17188,-1.125 -0.40625,-0.75 -0.40625,-1.82813 z m 1.6875,0.0937 q 0,0.92188 0.4375,1.42188 0.4375,0.48437 1.07813,0.48437 0.65625,0 1.07812,-0.48437 0.4375,-0.5 0.4375,-1.4375 0,-0.90625 -0.4375,-1.39063 -0.42187,-0.5 -1.07812,-0.5 -0.64063,0 -1.07813,0.5 -0.4375,0.48438 -0.4375,1.40625 z m 11.67383,3.10938 h -1.64063 v -3.17188 q 0,-1.01562 -0.10937,-1.3125 -0.0937,-0.29687 -0.34375,-0.45312 -0.23438,-0.17188 -0.5625,-0.17188 -0.4375,0 -0.78125,0.23438 -0.32813,0.23437 -0.45313,0.625 -0.125,0.39062 -0.125,1.4375 v 2.8125 h -1.65625 v -6.21875 h 1.53125 v 0.90625 q 0.8125,-1.04688 2.0625,-1.04688 0.53125,0 0.98438,0.20313 0.45312,0.1875 0.6875,0.5 0.23437,0.29687 0.3125,0.6875 0.0937,0.375 0.0937,1.09375 z m 7.37695,0 h -1.51562 v -0.92188 q -0.39063,0.54688 -0.90625,0.8125 -0.51563,0.25 -1.04688,0.25 -1.07812,0 -1.84375,-0.85937 -0.75,-0.875 -0.75,-2.42188 0,-1.57812 0.73438,-2.39062 0.75,-0.82813 1.89062,-0.82813 1.03125,0 1.79688,0.85938 v -3.09375 h 1.64062 z m -4.39062,-3.25 q 0,1 0.28125,1.4375 0.39062,0.65625 1.10937,0.65625 0.5625,0 0.95313,-0.48438 0.40625,-0.48437 0.40625,-1.45312 0,-1.0625 -0.39063,-1.53125 -0.375,-0.48438 -0.98437,-0.48438 -0.57813,0 -0.98438,0.46875 -0.39062,0.46875 -0.39062,1.39063 z" />
  <path
     style="fill:#000000;fill-opacity:0;fill-rule:evenodd"
     inkscape:connector-curvature="0"
     id="path51"
     d="m 467.37534,129.75066 -87.65356,0.12599" />
  <path
     style="fill-rule:evenodd;stroke:#000000;stroke-width:1;stroke-linecap:butt;stroke-linejoin:round"
     inkscape:connector-curvature="0"
     id="d-respond"
     d="m 467.37534,129.75066 -81.65356,0.11736"
     inkscape:label="#path53" />
  <path
     style="fill:#000000;fill-rule:evenodd;stroke:#000000;stroke-width:1;stroke-linecap:butt"
     inkscape:connector-curvature="0"
     id="path55"
     d="m 385.7194,128.2163 -4.53571,1.65825 4.54047,1.6452 z" />
  <path
     style="fill:#000000;fill-opacity:0;fill-rule:evenodd"
     inkscape:connector-curvature="0"
     id="state-1"
     d="m 79.83723,81.90589 v 0 c 0,-3.766045 3.052986,-6.819031 6.819038,-6.819031 h 27.275312 v 0 c 1.80853,0 3.54297,0.71843 4.82179,1.997246 1.27881,1.278816 1.99725,3.013267 1.99725,4.821785 v 154.64539 c 0,3.76605 -3.05299,6.81905 -6.81904,6.81905 H 86.656268 c -3.766052,0 -6.819038,-3.053 -6.819038,-6.81905 z"
     inkscape:label="#path57" />
  <path
     style="fill-rule:evenodd;stroke:#000000;stroke-width:1;stroke-linecap:butt;stroke-linejoin:round"
     inkscape:connector-curvature="0"
     id="path59"
     d="m 79.83723,81.90589 v 0 c 0,-3.766045 3.052986,-6.819031 6.819038,-6.819031 h 27.275312 v 0 c 1.80853,0 3.54297,0.71843 4.82179,1.997246 1.27881,1.278816 1.99725,3.013267 1.99725,4.821785 v 154.64539 c 0,3.76605 -3.05299,6.81905 -6.81904,6.81905 H 86.656268 c -3.766052,0 -6.819038,-3.053 -6.819038,-6.81905 z" />
  <path
     style="fill:#000000;fill-opacity:0;fill-rule:evenodd"
     inkscape:connector-curvature="0"
     id="path61"
     d="m 202.15942,157.14264 h 70.99213 v 23.49606 h -70.99213 z" />
  <path
     style="fill:#000000;fill-rule:nonzero"
     inkscape:connector-curvature="0"
     id="path63"
     d="m 211.15942,177.80325 2.48437,-8.875 h 0.84375 l -2.48437,8.875 z m 8.38086,-2.14063 1.09375,0.125 q -0.25,0.95313 -0.95313,1.48438 -0.70312,0.53125 -1.78125,0.53125 -1.35937,0 -2.17187,-0.84375 -0.79688,-0.84375 -0.79688,-2.35938 0,-1.5625 0.8125,-2.42187 0.8125,-0.875 2.09375,-0.875 1.25,0 2.03125,0.84375 0.79688,0.84375 0.79688,2.39062 0,0.0937 0,0.28125 h -4.64063 q 0.0625,1.03125 0.57813,1.57813 0.51562,0.53125 1.29687,0.53125 0.57813,0 0.98438,-0.29688 0.42187,-0.3125 0.65625,-0.96875 z m -3.45313,-1.70312 h 3.46875 q -0.0625,-0.79688 -0.39062,-1.1875 -0.51563,-0.60938 -1.3125,-0.60938 -0.73438,0 -1.23438,0.48438 -0.48437,0.48437 -0.53125,1.3125 z m 5.86133,3.70312 v -6.21875 h 0.95313 v 0.9375 q 0.35937,-0.65625 0.65625,-0.85937 0.3125,-0.21875 0.6875,-0.21875 0.53125,0 1.07812,0.32812 l -0.35937,0.98438 q -0.39063,-0.23438 -0.76563,-0.23438 -0.35937,0 -0.64062,0.21875 -0.26563,0.20313 -0.375,0.57813 -0.1875,0.5625 -0.1875,1.21875 v 3.26562 z m 3.9961,0 v -6.21875 h 0.95312 v 0.9375 q 0.35938,-0.65625 0.65625,-0.85937 0.3125,-0.21875 0.6875,-0.21875 0.53125,0 1.07813,0.32812 l -0.35938,0.98438 q -0.39062,-0.23438 -0.76562,-0.23438 -0.35938,0 -0.64063,0.21875 -0.26562,0.20313 -0.375,0.57813 -0.1875,0.5625 -0.1875,1.21875 v 3.26562 z m 3.62109,-3.10937 q 0,-1.73438 0.95312,-2.5625 0.79688,-0.6875 1.95313,-0.6875 1.28125,0 2.09375,0.84375 0.82812,0.82812 0.82812,2.3125 0,1.20312 -0.35937,1.89062 -0.35938,0.6875 -1.0625,1.07813 -0.6875,0.375 -1.5,0.375 -1.29688,0 -2.10938,-0.82813 -0.79687,-0.84375 -0.79687,-2.42187 z m 1.07812,0 q 0,1.1875 0.51563,1.78125 0.53125,0.59375 1.3125,0.59375 0.79687,0 1.3125,-0.59375 0.51562,-0.59375 0.51562,-1.8125 0,-1.15625 -0.53125,-1.75 -0.51562,-0.59375 -1.29687,-0.59375 -0.78125,0 -1.3125,0.59375 -0.51563,0.57812 -0.51563,1.78125 z m 5.97071,3.10937 v -6.21875 h 0.95312 v 0.9375 q 0.35938,-0.65625 0.65625,-0.85937 0.3125,-0.21875 0.6875,-0.21875 0.53125,0 1.07813,0.32812 l -0.35938,0.98438 q -0.39062,-0.23438 -0.76562,-0.23438 -0.35938,0 -0.64063,0.21875 -0.26562,0.20313 -0.375,0.57813 -0.1875,0.5625 -0.1875,1.21875 v 3.26562 z" />
  <path
     style="fill:#000000;fill-opacity:0;fill-rule:evenodd"
     inkscape:connector-curvature="0"
     id="path65"
     d="m 338.58798,156.91757 -217.63782,-0.0315" />
  <path
     style="fill-rule:evenodd;stroke:#000000;stroke-width:1;stroke-linecap:butt;stroke-linejoin:round"
     inkscape:connector-curvature="0"
     id="d-failure"
     d="m 338.58798,156.91757 -211.63782,-0.0306"
     inkscape:label="#path67" />
  <path
     style="fill:#000000;fill-rule:evenodd;stroke:#000000;stroke-width:1;stroke-linecap:butt"
     inkscape:connector-curvature="0"
     id="path69"
     d="m 126.95041,155.23521 -4.53834,1.65108 4.53787,1.65239 z" />
  <path
     style="fill:#000000;fill-opacity:0;fill-rule:evenodd"
     inkscape:connector-curvature="0"
     id="path71"
     d="m 198.3491,129.38345 h 67.84251 v 23.49606 H 198.3491 Z" />
  <path
     style="fill:#000000;fill-rule:nonzero"
     inkscape:connector-curvature="0"
     id="path73"
     d="m 207.3491,150.04407 2.48437,-8.875 h 0.84375 l -2.48437,8.875 z m 4.38086,-0.14063 v -5.40625 h -0.9375 v -0.8125 h 0.9375 v -0.67187 q 0,-0.625 0.10937,-0.92188 0.15625,-0.42187 0.53125,-0.67187 0.39063,-0.25 1.07813,-0.25 0.45312,0 0.98437,0.10937 l -0.15625,0.90625 q -0.32812,-0.0469 -0.625,-0.0469 -0.48437,0 -0.6875,0.20312 -0.1875,0.20313 -0.1875,0.76563 v 0.57812 h 1.21875 v 0.8125 h -1.21875 v 5.40625 z m 7.14648,-0.76562 q -0.59375,0.5 -1.14062,0.70312 -0.53125,0.20313 -1.15625,0.20313 -1.03125,0 -1.57813,-0.5 -0.54687,-0.5 -0.54687,-1.28125 0,-0.45313 0.20312,-0.82813 0.20313,-0.39062 0.54688,-0.60937 0.34375,-0.23438 0.76562,-0.34375 0.29688,-0.0937 0.9375,-0.17188 1.26563,-0.14062 1.875,-0.35937 0,-0.21875 0,-0.26563 0,-0.65625 -0.29687,-0.92187 -0.40625,-0.34375 -1.20313,-0.34375 -0.73437,0 -1.09375,0.26562 -0.35937,0.25 -0.53125,0.90625 l -1.03125,-0.14062 q 0.14063,-0.65625 0.46875,-1.0625 0.32813,-0.40625 0.9375,-0.625 0.60938,-0.21875 1.40625,-0.21875 0.79688,0 1.29688,0.1875 0.5,0.1875 0.73437,0.46875 0.23438,0.28125 0.32813,0.71875 0.0469,0.26562 0.0469,0.96875 v 1.40625 q 0,1.46875 0.0625,1.85937 0.0781,0.39063 0.28125,0.75 h -1.10937 q -0.15625,-0.32812 -0.20313,-0.76562 z m -0.0937,-2.35938 q -0.57812,0.23438 -1.71875,0.40625 -0.65625,0.0937 -0.92187,0.21875 -0.26563,0.10938 -0.42188,0.32813 -0.14062,0.21875 -0.14062,0.5 0,0.42187 0.3125,0.70312 0.32812,0.28125 0.9375,0.28125 0.60937,0 1.07812,-0.26562 0.48438,-0.26563 0.70313,-0.73438 0.17187,-0.35937 0.17187,-1.04687 z m 2.70508,-4.25 v -1.21875 h 1.0625 v 1.21875 z m 0,7.375 v -6.21875 h 1.0625 v 6.21875 z m 2.63477,0 v -8.59375 h 1.0625 v 8.59375 z m 6.77539,0 v -0.92187 q -0.73438,1.0625 -1.98438,1.0625 -0.54687,0 -1.03125,-0.20313 -0.46875,-0.21875 -0.70312,-0.53125 -0.23438,-0.32812 -0.32813,-0.79687 -0.0625,-0.29688 -0.0625,-0.98438 v -3.84375 h 1.0625 v 3.45313 q 0,0.8125 0.0625,1.10937 0.0937,0.40625 0.40625,0.65625 0.32813,0.23438 0.8125,0.23438 0.46875,0 0.875,-0.23438 0.42188,-0.25 0.59375,-0.67187 0.1875,-0.42188 0.1875,-1.21875 v -3.32813 h 1.04688 v 6.21875 z m 2.58008,0 v -6.21875 h 0.95312 v 0.9375 q 0.35938,-0.65625 0.65625,-0.85937 0.3125,-0.21875 0.6875,-0.21875 0.53125,0 1.07813,0.32812 l -0.35938,0.98438 q -0.39062,-0.23438 -0.76562,-0.23438 -0.35938,0 -0.64063,0.21875 -0.26562,0.20313 -0.375,0.57813 -0.1875,0.5625 -0.1875,1.21875 v 3.26562 z m 8.26172,-2 1.09375,0.125 q -0.25,0.95313 -0.95313,1.48438 -0.70312,0.53125 -1.78125,0.53125 -1.35937,0 -2.17187,-0.84375 -0.79688,-0.84375 -0.79688,-2.35938 0,-1.5625 0.8125,-2.42187 0.8125,-0.875 2.09375,-0.875 1.25,0 2.03125,0.84375 0.79688,0.84375 0.79688,2.39062 0,0.0937 0,0.28125 h -4.64063 q 0.0625,1.03125 0.57813,1.57813 0.51562,0.53125 1.29687,0.53125 0.57813,0 0.98438,-0.29688 0.42187,-0.3125 0.65625,-0.96875 z m -3.45313,-1.70312 h 3.46875 q -0.0625,-0.79688 -0.39062,-1.1875 -0.51563,-0.60938 -1.3125,-0.60938 -0.73438,0 -1.23438,0.48438 -0.48437,0.48437 -0.53125,1.3125 z" />
  <path
     style="fill:#000000;fill-opacity:0;fill-rule:evenodd"
     inkscape:connector-curvature="0"
     id="path75"
     d="m 178.32155,102.88345 h 104.88188 v 23.49606 H 178.32155 Z" />
  <path
     style="fill:#000000;fill-rule:nonzero"
     inkscape:connector-curvature="0"
     id="path77"
     d="m 187.32155,123.54408 2.48437,-8.875 h 0.84375 l -2.48437,8.875 z m 3.70898,-2 1.03125,-0.15625 q 0.0937,0.625 0.48438,0.95312 0.40625,0.32813 1.14062,0.32813 0.71875,0 1.0625,-0.28125 0.35938,-0.29688 0.35938,-0.70313 0,-0.35937 -0.3125,-0.5625 -0.21875,-0.14062 -1.07813,-0.35937 -1.15625,-0.29688 -1.60937,-0.5 -0.4375,-0.21875 -0.67188,-0.59375 -0.23437,-0.375 -0.23437,-0.84375 0,-0.40625 0.1875,-0.76563 0.1875,-0.35937 0.51562,-0.59375 0.25,-0.17187 0.67188,-0.29687 0.42187,-0.125 0.92187,-0.125 0.71875,0 1.26563,0.21875 0.5625,0.20312 0.82812,0.5625 0.26563,0.35937 0.35938,0.95312 l -1.03125,0.14063 q -0.0625,-0.46875 -0.40625,-0.73438 -0.32813,-0.28125 -0.95313,-0.28125 -0.71875,0 -1.03125,0.25 -0.3125,0.23438 -0.3125,0.5625 0,0.20313 0.125,0.35938 0.14063,0.17187 0.40625,0.28125 0.15625,0.0625 0.9375,0.26562 1.125,0.3125 1.5625,0.5 0.4375,0.1875 0.6875,0.54688 0.25,0.35937 0.25,0.90625 0,0.53125 -0.3125,1 -0.29687,0.45312 -0.875,0.71875 -0.57812,0.25 -1.3125,0.25 -1.21875,0 -1.85937,-0.5 -0.625,-0.51563 -0.79688,-1.5 z m 10.5,1.85937 v -0.92187 q -0.73437,1.0625 -1.98437,1.0625 -0.54688,0 -1.03125,-0.20313 -0.46875,-0.21875 -0.70313,-0.53125 -0.23437,-0.32812 -0.32812,-0.79687 -0.0625,-0.29688 -0.0625,-0.98438 v -3.84375 h 1.0625 v 3.45313 q 0,0.8125 0.0625,1.10937 0.0937,0.40625 0.40625,0.65625 0.32812,0.23438 0.8125,0.23438 0.46875,0 0.875,-0.23438 0.42187,-0.25 0.59375,-0.67187 0.1875,-0.42188 0.1875,-1.21875 v -3.32813 h 1.04687 v 6.21875 z m 6.65821,-2.28125 1.03125,0.14063 q -0.17188,1.0625 -0.875,1.67187 -0.70313,0.60938 -1.71875,0.60938 -1.28125,0 -2.0625,-0.82813 -0.76563,-0.84375 -0.76563,-2.40625 0,-1 0.32813,-1.75 0.34375,-0.76562 1.01562,-1.14062 0.6875,-0.375 1.5,-0.375 1,0 1.64063,0.51562 0.65625,0.5 0.84375,1.45313 l -1.03125,0.15625 q -0.14063,-0.625 -0.51563,-0.9375 -0.375,-0.32813 -0.90625,-0.32813 -0.79687,0 -1.29687,0.57813 -0.5,0.5625 -0.5,1.79687 0,1.26563 0.48437,1.82813 0.48438,0.5625 1.25,0.5625 0.625,0 1.03125,-0.375 0.42188,-0.375 0.54688,-1.17188 z m 6,0 1.03125,0.14063 q -0.17188,1.0625 -0.875,1.67187 -0.70313,0.60938 -1.71875,0.60938 -1.28125,0 -2.0625,-0.82813 -0.76563,-0.84375 -0.76563,-2.40625 0,-1 0.32813,-1.75 0.34375,-0.76562 1.01562,-1.14062 0.6875,-0.375 1.5,-0.375 1,0 1.64063,0.51562 0.65625,0.5 0.84375,1.45313 l -1.03125,0.15625 q -0.14063,-0.625 -0.51563,-0.9375 -0.375,-0.32813 -0.90625,-0.32813 -0.79687,0 -1.29687,0.57813 -0.5,0.5625 -0.5,1.79687 0,1.26563 0.48437,1.82813 0.48438,0.5625 1.25,0.5625 0.625,0 1.03125,-0.375 0.42188,-0.375 0.54688,-1.17188 z m 6.1875,0.28125 1.09375,0.125 q -0.25,0.95313 -0.95313,1.48438 -0.70312,0.53125 -1.78125,0.53125 -1.35937,0 -2.17187,-0.84375 -0.79688,-0.84375 -0.79688,-2.35938 0,-1.5625 0.8125,-2.42187 0.8125,-0.875 2.09375,-0.875 1.25,0 2.03125,0.84375 0.79688,0.84375 0.79688,2.39062 0,0.0937 0,0.28125 h -4.64063 q 0.0625,1.03125 0.57813,1.57813 0.51562,0.53125 1.29687,0.53125 0.57813,0 0.98438,-0.29688 0.42187,-0.3125 0.65625,-0.96875 z m -3.45313,-1.70312 h 3.46875 q -0.0625,-0.79688 -0.39062,-1.1875 -0.51563,-0.60938 -1.3125,-0.60938 -0.73438,0 -1.23438,0.48438 -0.48437,0.48437 -0.53125,1.3125 z m 5.45508,1.84375 1.03125,-0.15625 q 0.0937,0.625 0.48438,0.95312 0.40625,0.32813 1.14062,0.32813 0.71875,0 1.0625,-0.28125 0.35938,-0.29688 0.35938,-0.70313 0,-0.35937 -0.3125,-0.5625 -0.21875,-0.14062 -1.07813,-0.35937 -1.15625,-0.29688 -1.60937,-0.5 -0.4375,-0.21875 -0.67188,-0.59375 -0.23437,-0.375 -0.23437,-0.84375 0,-0.40625 0.1875,-0.76563 0.1875,-0.35937 0.51562,-0.59375 0.25,-0.17187 0.67188,-0.29687 0.42187,-0.125 0.92187,-0.125 0.71875,0 1.26563,0.21875 0.5625,0.20312 0.82812,0.5625 0.26563,0.35937 0.35938,0.95312 l -1.03125,0.14063 q -0.0625,-0.46875 -0.40625,-0.73438 -0.32813,-0.28125 -0.95313,-0.28125 -0.71875,0 -1.03125,0.25 -0.3125,0.23438 -0.3125,0.5625 0,0.20313 0.125,0.35938 0.14063,0.17187 0.40625,0.28125 0.15625,0.0625 0.9375,0.26562 1.125,0.3125 1.5625,0.5 0.4375,0.1875 0.6875,0.54688 0.25,0.35937 0.25,0.90625 0,0.53125 -0.3125,1 -0.29687,0.45312 -0.875,0.71875 -0.57812,0.25 -1.3125,0.25 -1.21875,0 -1.85937,-0.5 -0.625,-0.51563 -0.79688,-1.5 z m 6,0 1.03125,-0.15625 q 0.0937,0.625 0.48438,0.95312 0.40625,0.32813 1.14062,0.32813 0.71875,0 1.0625,-0.28125 0.35938,-0.29688 0.35938,-0.70313 0,-0.35937 -0.3125,-0.5625 -0.21875,-0.14062 -1.07813,-0.35937 -1.15625,-0.29688 -1.60937,-0.5 -0.4375,-0.21875 -0.67188,-0.59375 -0.23437,-0.375 -0.23437,-0.84375 0,-0.40625 0.1875,-0.76563 0.1875,-0.35937 0.51562,-0.59375 0.25,-0.17187 0.67188,-0.29687 0.42187,-0.125 0.92187,-0.125 0.71875,0 1.26563,0.21875 0.5625,0.20312 0.82812,0.5625 0.26563,0.35937 0.35938,0.95312 l -1.03125,0.14063 q -0.0625,-0.46875 -0.40625,-0.73438 -0.32813,-0.28125 -0.95313,-0.28125 -0.71875,0 -1.03125,0.25 -0.3125,0.23438 -0.3125,0.5625 0,0.20313 0.125,0.35938 0.14063,0.17187 0.40625,0.28125 0.15625,0.0625 0.9375,0.26562 1.125,0.3125 1.5625,0.5 0.4375,0.1875 0.6875,0.54688 0.25,0.35937 0.25,0.90625 0,0.53125 -0.3125,1 -0.29687,0.45312 -0.875,0.71875 -0.57812,0.25 -1.3125,0.25 -1.21875,0 -1.85937,-0.5 -0.625,-0.51563 -0.79688,-1.5 z m 8.4375,4.39062 q -0.875,-1.10937 -1.48437,-2.57812 -0.59375,-1.48438 -0.59375,-3.0625 0,-1.39063 0.4375,-2.67188 0.53125,-1.48437 1.64062,-2.95312 h 0.75 q -0.70312,1.21875 -0.9375,1.73437 -0.35937,0.8125 -0.5625,1.6875 -0.25,1.09375 -0.25,2.20313 0,2.82812 1.75,5.64062 z m 2.23047,-2.53125 v -5.40625 h -0.9375 v -0.8125 h 0.9375 v -0.67187 q 0,-0.625 0.10937,-0.92188 0.15625,-0.42187 0.53125,-0.67187 0.39063,-0.25 1.07813,-0.25 0.45312,0 0.98437,0.10937 l -0.15625,0.90625 q -0.32812,-0.0469 -0.625,-0.0469 -0.48437,0 -0.6875,0.20312 -0.1875,0.20313 -0.1875,0.76563 v 0.57812 h 1.21875 v 0.8125 h -1.21875 v 5.40625 z m 7.14648,-0.76562 q -0.59375,0.5 -1.14062,0.70312 -0.53125,0.20313 -1.15625,0.20313 -1.03125,0 -1.57813,-0.5 -0.54687,-0.5 -0.54687,-1.28125 0,-0.45313 0.20312,-0.82813 0.20313,-0.39062 0.54688,-0.60937 0.34375,-0.23438 0.76562,-0.34375 0.29688,-0.0937 0.9375,-0.17188 1.26563,-0.14062 1.875,-0.35937 0,-0.21875 0,-0.26563 0,-0.65625 -0.29687,-0.92187 -0.40625,-0.34375 -1.20313,-0.34375 -0.73437,0 -1.09375,0.26562 -0.35937,0.25 -0.53125,0.90625 l -1.03125,-0.14062 q 0.14063,-0.65625 0.46875,-1.0625 0.32813,-0.40625 0.9375,-0.625 0.60938,-0.21875 1.40625,-0.21875 0.79688,0 1.29688,0.1875 0.5,0.1875 0.73437,0.46875 0.23438,0.28125 0.32813,0.71875 0.0469,0.26562 0.0469,0.96875 v 1.40625 q 0,1.46875 0.0625,1.85937 0.0781,0.39063 0.28125,0.75 h -1.10937 q -0.15625,-0.32812 -0.20313,-0.76562 z m -0.0937,-2.35938 q -0.57812,0.23438 -1.71875,0.40625 -0.65625,0.0937 -0.92187,0.21875 -0.26563,0.10938 -0.42188,0.32813 -0.14062,0.21875 -0.14062,0.5 0,0.42187 0.3125,0.70312 0.32812,0.28125 0.9375,0.28125 0.60937,0 1.07812,-0.26562 0.48438,-0.26563 0.70313,-0.73438 0.17187,-0.35937 0.17187,-1.04687 z m 2.67383,3.125 v -8.59375 h 1.0625 v 8.59375 z m 2.27539,-1.85937 1.03125,-0.15625 q 0.0937,0.625 0.48438,0.95312 0.40625,0.32813 1.14062,0.32813 0.71875,0 1.0625,-0.28125 0.35938,-0.29688 0.35938,-0.70313 0,-0.35937 -0.3125,-0.5625 -0.21875,-0.14062 -1.07813,-0.35937 -1.15625,-0.29688 -1.60937,-0.5 -0.4375,-0.21875 -0.67188,-0.59375 -0.23437,-0.375 -0.23437,-0.84375 0,-0.40625 0.1875,-0.76563 0.1875,-0.35937 0.51562,-0.59375 0.25,-0.17187 0.67188,-0.29687 0.42187,-0.125 0.92187,-0.125 0.71875,0 1.26563,0.21875 0.5625,0.20312 0.82812,0.5625 0.26563,0.35937 0.35938,0.95312 l -1.03125,0.14063 q -0.0625,-0.46875 -0.40625,-0.73438 -0.32813,-0.28125 -0.95313,-0.28125 -0.71875,0 -1.03125,0.25 -0.3125,0.23438 -0.3125,0.5625 0,0.20313 0.125,0.35938 0.14063,0.17187 0.40625,0.28125 0.15625,0.0625 0.9375,0.26562 1.125,0.3125 1.5625,0.5 0.4375,0.1875 0.6875,0.54688 0.24999,0.35937 0.24999,0.90625 0,0.53125 -0.31249,1 -0.29687,0.45312 -0.875,0.71875 -0.57812,0.25 -1.3125,0.25 -1.21875,0 -1.85937,-0.5 -0.625,-0.51563 -0.79688,-1.5 z m 10.67186,-0.14063 1.09375,0.125 q -0.25,0.95313 -0.95312,1.48438 -0.70313,0.53125 -1.78125,0.53125 -1.35938,0 -2.17188,-0.84375 -0.79687,-0.84375 -0.79687,-2.35938 0,-1.5625 0.8125,-2.42187 0.8125,-0.875 2.09375,-0.875 1.25,0 2.03125,0.84375 0.79687,0.84375 0.79687,2.39062 0,0.0937 0,0.28125 h -4.64062 q 0.0625,1.03125 0.57812,1.57813 0.51563,0.53125 1.29688,0.53125 0.57812,0 0.98437,-0.29688 0.42188,-0.3125 0.65625,-0.96875 z m -3.45312,-1.70312 h 3.46875 q -0.0625,-0.79688 -0.39063,-1.1875 -0.51562,-0.60938 -1.3125,-0.60938 -0.73437,0 -1.23437,0.48438 -0.48438,0.48437 -0.53125,1.3125 z m 6.56445,6.23437 h -0.75 q 1.75,-2.8125 1.75,-5.64062 0,-1.09375 -0.25,-2.1875 -0.20312,-0.875 -0.5625,-1.6875 -0.23437,-0.51563 -0.9375,-1.75 h 0.75 q 1.09375,1.46875 1.625,2.95312 0.45313,1.28125 0.45313,2.67188 0,1.57812 -0.60938,3.0625 -0.60937,1.46875 -1.46875,2.57812 z" />
  <path
     style="fill:#000000;fill-opacity:0;fill-rule:evenodd"
     inkscape:connector-curvature="0"
     id="path79"
     d="M 338.06534,129.88124 H 120.96297" />
  <path
     style="fill-rule:evenodd;stroke:#000000;stroke-width:1;stroke-linecap:butt;stroke-linejoin:round"
     inkscape:connector-curvature="0"
     id="d-success-false"
     d="M 338.06534,129.88124 H 126.96297"
     inkscape:label="#path81" />
  <path
     style="fill:#000000;fill-rule:evenodd;stroke:#000000;stroke-width:1;stroke-linecap:butt"
     inkscape:connector-curvature="0"
     id="path83"
     d="m 126.96297,128.2295 -4.53809,1.65173 4.53809,1.65172 z" />
  <path
     style="fill:#000000;fill-opacity:0;fill-rule:evenodd"
     inkscape:connector-curvature="0"
     id="path85"
     d="M 338.66934,184.87952 H 120.08665" />
  <path
     style="fill-rule:evenodd;stroke:#000000;stroke-width:1;stroke-linecap:butt;stroke-linejoin:round"
     inkscape:connector-curvature="0"
     id="d-error"
     d="M 338.66934,184.87952 H 126.08665"
     inkscape:label="#path87" />
  <path
     style="fill:#000000;fill-rule:evenodd;stroke:#000000;stroke-width:1;stroke-linecap:butt"
     inkscape:connector-curvature="0"
     id="path89"
     d="m 126.08665,183.22778 -4.53809,1.65173 4.53809,1.65174 z" />
  <path
     style="fill:#000000;fill-opacity:0;fill-rule:evenodd"
     inkscape:connector-curvature="0"
     id="path91"
     d="m 206.78107,74.3782 h 70.99213 v 27.49606 h -70.99213 z" />
  <path
     style="fill:#000000;fill-rule:nonzero"
     inkscape:connector-curvature="0"
     id="path93"
     d="m 217.87482,90.570076 -1.5,-0.265625 q 0.25,-0.90625 0.85937,-1.328125 0.625,-0.4375 1.84375,-0.4375 1.09375,0 1.625,0.265625 0.54688,0.25 0.76563,0.65625 0.21875,0.390625 0.21875,1.46875 l -0.0156,1.921875 q 0,0.828125 0.0781,1.21875 0.0781,0.375 0.29687,0.828125 h -1.625 q -0.0625,-0.171875 -0.15625,-0.484375 -0.0469,-0.15625 -0.0625,-0.203125 -0.42187,0.421875 -0.90625,0.625 -0.46875,0.203125 -1.01562,0.203125 -0.96875,0 -1.53125,-0.515625 -0.54688,-0.53125 -0.54688,-1.328125 0,-0.53125 0.25,-0.9375 0.26563,-0.40625 0.71875,-0.625 0.45313,-0.234375 1.3125,-0.390625 1.14063,-0.21875 1.59375,-0.40625 v -0.15625 q 0,-0.484375 -0.23437,-0.6875 -0.23438,-0.203125 -0.89063,-0.203125 -0.4375,0 -0.6875,0.171875 -0.23437,0.171875 -0.39062,0.609375 z m 2.20312,1.34375 q -0.3125,0.09375 -1,0.25 -0.6875,0.140625 -0.90625,0.28125 -0.3125,0.234375 -0.3125,0.578125 0,0.34375 0.25,0.609375 0.26563,0.25 0.65625,0.25 0.45313,0 0.85938,-0.296875 0.29687,-0.21875 0.39062,-0.546875 0.0625,-0.203125 0.0625,-0.796875 z m 2.65821,1.203125 1.65625,-0.25 q 0.10937,0.484375 0.42187,0.734375 0.32813,0.25 0.90625,0.25 0.64063,0 0.95313,-0.234375 0.21875,-0.171875 0.21875,-0.4375 0,-0.1875 -0.10938,-0.3125 -0.125,-0.125 -0.54687,-0.21875 -2,-0.4375 -2.53125,-0.796875 -0.73438,-0.515625 -0.73438,-1.40625 0,-0.8125 0.625,-1.359375 0.64063,-0.546875 1.98438,-0.546875 1.28125,0 1.90625,0.421875 0.625,0.40625 0.85937,1.21875 l -1.5625,0.28125 q -0.0937,-0.359375 -0.375,-0.546875 -0.28125,-0.203125 -0.79687,-0.203125 -0.64063,0 -0.92188,0.1875 -0.1875,0.125 -0.1875,0.328125 0,0.1875 0.15625,0.3125 0.21875,0.15625 1.53125,0.453125 1.32813,0.296875 1.84375,0.734375 0.51563,0.4375 0.51563,1.21875 0,0.859375 -0.71875,1.484375 -0.70313,0.609375 -2.10938,0.609375 -1.26562,0 -2.01562,-0.515625 -0.73438,-0.515625 -0.96875,-1.40625 z m 7.18945,1.78125 v -8.59375 h 1.65625 v 4.5625 l 1.92188,-2.1875 h 2.03125 l -2.125,2.265625 2.28125,3.953125 h -1.78125 l -1.5625,-2.796875 -0.76563,0.796875 v 2 z" />
  <path
     style="fill:#000000;fill-opacity:0;fill-rule:evenodd"
     inkscape:connector-curvature="0"
     id="path95"
     d="m 338.45297,101.63078 -217.54332,-0.0945" />
  <path
     style="fill-rule:evenodd;stroke:#000000;stroke-width:1;stroke-linecap:butt;stroke-linejoin:round"
     inkscape:connector-curvature="0"
     id="d-ask"
     d="m 332.45297,101.62818 -211.54332,-0.0919"
     inkscape:label="#path97" />
  <path
     style="fill:#000000;fill-rule:evenodd;stroke:#000000;stroke-width:1;stroke-linecap:butt"
     inkscape:connector-curvature="0"
     id="path99"
     d="m 332.45224,103.27991 4.53882,-1.64976 -4.53739,-1.653707 z" />
  <path
     style="fill:#000000;fill-opacity:0;fill-rule:evenodd"
     inkscape:connector-curvature="0"
     id="state-4"
     d="m 193.7088,209.21298 v 0 c 0,-3.77475 3.06004,-6.83478 6.83479,-6.83478 h 27.33831 v 0 c 1.81269,0 3.55114,0.72009 4.83291,2.00186 1.28177,1.28177 2.00186,3.02022 2.00186,4.83292 v 78.83438 c 0,3.77475 -3.06002,6.83478 -6.83477,6.83478 h -27.33831 c -3.77475,0 -6.83479,-3.06003 -6.83479,-6.83478 z"
     inkscape:label="#path101" />
  <path
     style="fill-rule:evenodd;stroke:#000000;stroke-width:1;stroke-linecap:butt;stroke-linejoin:round"
     inkscape:connector-curvature="0"
     id="path103"
     d="m 193.7088,209.21298 v 0 c 0,-3.77475 3.06004,-6.83478 6.83479,-6.83478 h 27.33831 v 0 c 1.81269,0 3.55114,0.72009 4.83291,2.00186 1.28177,1.28177 2.00186,3.02022 2.00186,4.83292 v 78.83438 c 0,3.77475 -3.06002,6.83478 -6.83477,6.83478 h -27.33831 c -3.77475,0 -6.83479,-3.06003 -6.83479,-6.83478 z" />
  <path
     style="fill:#000000;fill-opacity:0;fill-rule:evenodd"
     inkscape:connector-curvature="0"
     id="path105"
     d="M 243.38414,192.38083 H 346.1243 v 23.49606 H 243.38414 Z" />
  <path
     style="fill:#000000;fill-rule:nonzero"
     inkscape:connector-curvature="0"
     id="path107"
     d="m 252.38414,213.04144 2.48437,-8.875 h 0.84375 l -2.48437,8.875 z m 3.709,-2 1.03125,-0.15625 q 0.0937,0.625 0.48437,0.95312 0.40625,0.32813 1.14063,0.32813 0.71875,0 1.0625,-0.28125 0.35937,-0.29688 0.35937,-0.70313 0,-0.35937 -0.3125,-0.5625 -0.21875,-0.14062 -1.07812,-0.35937 -1.15625,-0.29688 -1.60938,-0.5 -0.4375,-0.21875 -0.67187,-0.59375 -0.23438,-0.375 -0.23438,-0.84375 0,-0.40625 0.1875,-0.76563 0.1875,-0.35937 0.51563,-0.59375 0.25,-0.17187 0.67187,-0.29687 0.42188,-0.125 0.92188,-0.125 0.71875,0 1.26562,0.21875 0.5625,0.20312 0.82813,0.5625 0.26562,0.35937 0.35937,0.95312 l -1.03125,0.14063 q -0.0625,-0.46875 -0.40625,-0.73438 -0.32812,-0.28125 -0.95312,-0.28125 -0.71875,0 -1.03125,0.25 -0.3125,0.23438 -0.3125,0.5625 0,0.20313 0.125,0.35938 0.14062,0.17187 0.40625,0.28125 0.15625,0.0625 0.9375,0.26562 1.125,0.3125 1.5625,0.5 0.4375,0.1875 0.6875,0.54688 0.25,0.35937 0.25,0.90625 0,0.53125 -0.3125,1 -0.29688,0.45312 -0.875,0.71875 -0.57813,0.25 -1.3125,0.25 -1.21875,0 -1.85938,-0.5 -0.625,-0.51563 -0.79687,-1.5 z m 10.5,1.85937 v -0.92187 q -0.73438,1.0625 -1.98438,1.0625 -0.54687,0 -1.03125,-0.20313 -0.46875,-0.21875 -0.70312,-0.53125 -0.23438,-0.32812 -0.32813,-0.79687 -0.0625,-0.29688 -0.0625,-0.98438 v -3.84375 h 1.0625 v 3.45313 q 0,0.8125 0.0625,1.10937 0.0937,0.40625 0.40625,0.65625 0.32813,0.23438 0.8125,0.23438 0.46875,0 0.875,-0.23438 0.42188,-0.25 0.59375,-0.67187 0.1875,-0.42188 0.1875,-1.21875 v -3.32813 h 1.04688 v 6.21875 z m 6.6582,-2.28125 1.03125,0.14063 q -0.17187,1.0625 -0.875,1.67187 -0.70312,0.60938 -1.71875,0.60938 -1.28125,0 -2.0625,-0.82813 -0.76562,-0.84375 -0.76562,-2.40625 0,-1 0.32812,-1.75 0.34375,-0.76562 1.01563,-1.14062 0.6875,-0.375 1.5,-0.375 1,0 1.64062,0.51562 0.65625,0.5 0.84375,1.45313 l -1.03125,0.15625 q -0.14062,-0.625 -0.51562,-0.9375 -0.375,-0.32813 -0.90625,-0.32813 -0.79688,0 -1.29688,0.57813 -0.5,0.5625 -0.5,1.79687 0,1.26563 0.48438,1.82813 0.48437,0.5625 1.25,0.5625 0.625,0 1.03125,-0.375 0.42187,-0.375 0.54687,-1.17188 z m 6,0 1.03125,0.14063 q -0.17187,1.0625 -0.875,1.67187 -0.70312,0.60938 -1.71875,0.60938 -1.28125,0 -2.0625,-0.82813 -0.76562,-0.84375 -0.76562,-2.40625 0,-1 0.32812,-1.75 0.34375,-0.76562 1.01563,-1.14062 0.6875,-0.375 1.5,-0.375 1,0 1.64062,0.51562 0.65625,0.5 0.84375,1.45313 l -1.03125,0.15625 q -0.14062,-0.625 -0.51562,-0.9375 -0.375,-0.32813 -0.90625,-0.32813 -0.79688,0 -1.29688,0.57813 -0.5,0.5625 -0.5,1.79687 0,1.26563 0.48438,1.82813 0.48437,0.5625 1.25,0.5625 0.625,0 1.03125,-0.375 0.42187,-0.375 0.54687,-1.17188 z m 6.1875,0.28125 1.09375,0.125 q -0.25,0.95313 -0.95312,1.48438 -0.70313,0.53125 -1.78125,0.53125 -1.35938,0 -2.17188,-0.84375 -0.79687,-0.84375 -0.79687,-2.35938 0,-1.5625 0.8125,-2.42187 0.8125,-0.875 2.09375,-0.875 1.25,0 2.03125,0.84375 0.79687,0.84375 0.79687,2.39062 0,0.0937 0,0.28125 h -4.64062 q 0.0625,1.03125 0.57812,1.57813 0.51563,0.53125 1.29688,0.53125 0.57812,0 0.98437,-0.29688 0.42188,-0.3125 0.65625,-0.96875 z m -3.45312,-1.70312 h 3.46875 q -0.0625,-0.79688 -0.39063,-1.1875 -0.51562,-0.60938 -1.3125,-0.60938 -0.73437,0 -1.23437,0.48438 -0.48438,0.48437 -0.53125,1.3125 z m 5.45508,1.84375 1.03125,-0.15625 q 0.0937,0.625 0.48437,0.95312 0.40625,0.32813 1.14063,0.32813 0.71875,0 1.0625,-0.28125 0.35937,-0.29688 0.35937,-0.70313 0,-0.35937 -0.3125,-0.5625 -0.21875,-0.14062 -1.07812,-0.35937 -1.15625,-0.29688 -1.60938,-0.5 -0.4375,-0.21875 -0.67187,-0.59375 -0.23438,-0.375 -0.23438,-0.84375 0,-0.40625 0.1875,-0.76563 0.1875,-0.35937 0.51563,-0.59375 0.25,-0.17187 0.67187,-0.29687 0.42188,-0.125 0.92188,-0.125 0.71875,0 1.26562,0.21875 0.5625,0.20312 0.82813,0.5625 0.26562,0.35937 0.35937,0.95312 l -1.03125,0.14063 q -0.0625,-0.46875 -0.40625,-0.73438 -0.32812,-0.28125 -0.95312,-0.28125 -0.71875,0 -1.03125,0.25 -0.3125,0.23438 -0.3125,0.5625 0,0.20313 0.125,0.35938 0.14062,0.17187 0.40625,0.28125 0.15625,0.0625 0.9375,0.26562 1.125,0.3125 1.5625,0.5 0.4375,0.1875 0.6875,0.54688 0.25,0.35937 0.25,0.90625 0,0.53125 -0.3125,1 -0.29688,0.45312 -0.875,0.71875 -0.57813,0.25 -1.3125,0.25 -1.21875,0 -1.85938,-0.5 -0.625,-0.51563 -0.79687,-1.5 z m 6,0 1.03125,-0.15625 q 0.0937,0.625 0.48437,0.95312 0.40625,0.32813 1.14063,0.32813 0.71875,0 1.0625,-0.28125 0.35937,-0.29688 0.35937,-0.70313 0,-0.35937 -0.3125,-0.5625 -0.21875,-0.14062 -1.07812,-0.35937 -1.15625,-0.29688 -1.60938,-0.5 -0.4375,-0.21875 -0.67187,-0.59375 -0.23438,-0.375 -0.23438,-0.84375 0,-0.40625 0.1875,-0.76563 0.1875,-0.35937 0.51563,-0.59375 0.25,-0.17187 0.67187,-0.29687 0.42188,-0.125 0.92188,-0.125 0.71875,0 1.26562,0.21875 0.5625,0.20312 0.82813,0.5625 0.26562,0.35937 0.35937,0.95312 l -1.03125,0.14063 q -0.0625,-0.46875 -0.40625,-0.73438 -0.32812,-0.28125 -0.95312,-0.28125 -0.71875,0 -1.03125,0.25 -0.3125,0.23438 -0.3125,0.5625 0,0.20313 0.125,0.35938 0.14062,0.17187 0.40625,0.28125 0.15625,0.0625 0.9375,0.26562 1.125,0.3125 1.5625,0.5 0.4375,0.1875 0.6875,0.54688 0.25,0.35937 0.25,0.90625 0,0.53125 -0.3125,1 -0.29688,0.45312 -0.875,0.71875 -0.57813,0.25 -1.3125,0.25 -1.21875,0 -1.85938,-0.5 -0.625,-0.51563 -0.79687,-1.5 z m 8.4375,4.39062 q -0.875,-1.10937 -1.48438,-2.57812 -0.59375,-1.48438 -0.59375,-3.0625 0,-1.39063 0.4375,-2.67188 0.53125,-1.48437 1.64063,-2.95312 h 0.75 q -0.70313,1.21875 -0.9375,1.73437 -0.35938,0.8125 -0.5625,1.6875 -0.25,1.09375 -0.25,2.20313 0,2.82812 1.75,5.64062 z m 4.27734,-3.46875 0.15625,0.92188 q -0.45313,0.0937 -0.79688,0.0937 -0.57812,0 -0.89062,-0.17188 -0.3125,-0.1875 -0.45313,-0.48437 -0.125,-0.29688 -0.125,-1.25 v -3.57813 h -0.76562 v -0.8125 h 0.76562 v -1.54687 l 1.04688,-0.625 v 2.17187 h 1.0625 v 0.8125 h -1.0625 v 3.64063 q 0,0.45312 0.0469,0.57812 0.0625,0.125 0.1875,0.20313 0.125,0.0781 0.35938,0.0781 0.1875,0 0.46875,-0.0312 z m 1.02148,0.9375 v -6.21875 h 0.95313 v 0.9375 q 0.35937,-0.65625 0.65625,-0.85937 0.3125,-0.21875 0.6875,-0.21875 0.53125,0 1.07812,0.32812 l -0.35937,0.98438 q -0.39063,-0.23438 -0.76563,-0.23438 -0.35937,0 -0.64062,0.21875 -0.26563,0.20313 -0.375,0.57813 -0.1875,0.5625 -0.1875,1.21875 v 3.26562 z m 8.08985,0 v -0.92187 q -0.73438,1.0625 -1.98438,1.0625 -0.54687,0 -1.03125,-0.20313 -0.46875,-0.21875 -0.70312,-0.53125 -0.23438,-0.32812 -0.32813,-0.79687 -0.0625,-0.29688 -0.0625,-0.98438 v -3.84375 h 1.0625 v 3.45313 q 0,0.8125 0.0625,1.10937 0.0937,0.40625 0.40625,0.65625 0.32813,0.23438 0.8125,0.23438 0.46875,0 0.875,-0.23438 0.42188,-0.25 0.59375,-0.67187 0.1875,-0.42188 0.1875,-1.21875 v -3.32813 h 1.04688 v 6.21875 z m 6.8457,-2 1.09375,0.125 q -0.25,0.95313 -0.95312,1.48438 -0.70313,0.53125 -1.78125,0.53125 -1.35938,0 -2.17188,-0.84375 -0.79687,-0.84375 -0.79687,-2.35938 0,-1.5625 0.8125,-2.42187 0.8125,-0.875 2.09375,-0.875 1.25,0 2.03125,0.84375 0.79687,0.84375 0.79687,2.39062 0,0.0937 0,0.28125 h -4.64062 q 0.0625,1.03125 0.57812,1.57813 0.51563,0.53125 1.29688,0.53125 0.57812,0 0.98437,-0.29688 0.42188,-0.3125 0.65625,-0.96875 z m -3.45312,-1.70312 h 3.46875 q -0.0625,-0.79688 -0.39063,-1.1875 -0.51562,-0.60938 -1.3125,-0.60938 -0.73437,0 -1.23437,0.48438 -0.48438,0.48437 -0.53125,1.3125 z m 6.56445,6.23437 h -0.75 q 1.75,-2.8125 1.75,-5.64062 0,-1.09375 -0.25,-2.1875 -0.20313,-0.875 -0.5625,-1.6875 -0.23438,-0.51563 -0.9375,-1.75 h 0.75 q 1.09375,1.46875 1.625,2.95312 0.45312,1.28125 0.45312,2.67188 0,1.57812 -0.60937,3.0625 -0.60938,1.46875 -1.46875,2.57812 z" />
  <path
     style="fill:#000000;fill-opacity:0;fill-rule:evenodd"
     inkscape:connector-curvature="0"
     id="path109"
     d="M 338.557,220.3791 H 234.99795" />
  <path
     style="fill-rule:evenodd;stroke:#000000;stroke-width:1;stroke-linecap:butt;stroke-linejoin:round"
     inkscape:connector-curvature="0"
     id="d-success-true"
     d="M 338.557,220.3791 H 240.99795"
     inkscape:label="#path111" />
  <path
     style="fill:#000000;fill-rule:evenodd;stroke:#000000;stroke-width:1;stroke-linecap:butt"
     inkscape:connector-curvature="0"
     id="path113"
     d="m 240.99796,218.72737 -4.5381,1.65173 4.5381,1.65174 z" />
  <path
     style="fill:#000000;fill-opacity:0;fill-rule:evenodd"
     inkscape:connector-curvature="0"
     id="path115"
     d="m 264.05698,221.6883 h 64.28348 v 23.49606 h -64.28348 z" />
  <path
     style="fill:#000000;fill-rule:nonzero"
     inkscape:connector-curvature="0"
     id="path117"
     d="m 279.5726,242.2083 h -1.64062 v -3.17188 q 0,-1.01562 -0.10938,-1.3125 -0.0937,-0.29687 -0.34375,-0.45312 -0.23437,-0.17188 -0.5625,-0.17188 -0.4375,0 -0.78125,0.23438 -0.32812,0.23437 -0.45312,0.625 -0.125,0.39062 -0.125,1.4375 v 2.8125 h -1.65625 v -6.21875 h 1.53125 v 0.90625 q 0.8125,-1.04688 2.0625,-1.04688 0.53125,0 0.98437,0.20313 0.45313,0.1875 0.6875,0.5 0.23438,0.29687 0.3125,0.6875 0.0937,0.375 0.0937,1.09375 z m 5.2832,-1.98438 1.64063,0.28125 q -0.3125,0.90625 -1,1.375 -0.6875,0.46875 -1.70313,0.46875 -1.625,0 -2.40625,-1.0625 -0.625,-0.84375 -0.625,-2.14062 0,-1.54688 0.8125,-2.42188 0.8125,-0.875 2.04688,-0.875 1.39062,0 2.1875,0.92188 0.8125,0.90625 0.76562,2.79687 h -4.125 q 0.0312,0.73438 0.40625,1.14063 0.375,0.40625 0.95313,0.40625 0.375,0 0.64062,-0.20313 0.26563,-0.21875 0.40625,-0.6875 z m 0.0937,-1.65625 q -0.0156,-0.71875 -0.375,-1.09375 -0.34375,-0.375 -0.85937,-0.375 -0.53125,0 -0.89063,0.39063 -0.34375,0.40625 -0.34375,1.07812 z m 2.18946,3.64063 2.23437,-3.20313 -2.14062,-3.01562 h 2 l 1.10937,1.70312 1.15625,-1.70312 h 1.9375 l -2.10937,2.9375 2.29687,3.28125 h -2.01562 l -1.26563,-1.92188 -1.28125,1.92188 z m 10.31445,-6.21875 v 1.3125 h -1.125 v 2.5 q 0,0.76562 0.0312,0.89062 0.0312,0.125 0.14062,0.21875 0.125,0.0781 0.28125,0.0781 0.23438,0 0.65625,-0.17188 l 0.14063,1.28125 q -0.5625,0.25 -1.29688,0.25 -0.4375,0 -0.79687,-0.14062 -0.35938,-0.15625 -0.53125,-0.39063 -0.15625,-0.25 -0.23438,-0.64062 -0.0469,-0.29688 -0.0469,-1.17188 v -2.70312 h -0.75 v -1.3125 h 0.75 v -1.23438 l 1.65625,-0.96875 v 2.20313 z" />
  <path
     style="fill:#000000;fill-opacity:0;fill-rule:evenodd"
     inkscape:connector-curvature="0"
     id="path119"
     d="M 337.9245,249.08253 H 234.61742" />
  <path
     style="fill-rule:evenodd;stroke:#000000;stroke-width:1;stroke-linecap:butt;stroke-linejoin:round"
     inkscape:connector-curvature="0"
     id="d-next"
     d="M 331.9245,249.08253 H 234.61742"
     inkscape:label="#path121" />
  <path
     style="fill:#000000;fill-rule:evenodd;stroke:#000000;stroke-width:1;stroke-linecap:butt"
     inkscape:connector-curvature="0"
     id="path123"
     d="m 331.9245,250.73427 4.53809,-1.65173 -4.53809,-1.65174 z" />
  <path
     style="fill:#000000;fill-opacity:0;fill-rule:evenodd"
     inkscape:connector-curvature="0"
     id="path125"
     d="m 126.02627,191.99237 h 104.88189 v 23.49606 H 126.02627 Z" />
  <path
     style="fill:#000000;fill-rule:nonzero"
     inkscape:connector-curvature="0"
     id="path127"
     d="m 135.30751,210.73112 1.65625,-0.25 q 0.10937,0.48437 0.42187,0.73437 0.32813,0.25 0.90625,0.25 0.64063,0 0.95313,-0.23437 0.21875,-0.17188 0.21875,-0.4375 0,-0.1875 -0.10938,-0.3125 -0.125,-0.125 -0.54687,-0.21875 -2,-0.4375 -2.53125,-0.79688 -0.73438,-0.51562 -0.73438,-1.40625 0,-0.8125 0.625,-1.35937 0.64063,-0.54688 1.98438,-0.54688 1.28125,0 1.90625,0.42188 0.625,0.40625 0.85937,1.21875 l -1.5625,0.28125 q -0.0937,-0.35938 -0.375,-0.54688 -0.28125,-0.20312 -0.79687,-0.20312 -0.64063,0 -0.92188,0.1875 -0.1875,0.125 -0.1875,0.32812 0,0.1875 0.15625,0.3125 0.21875,0.15625 1.53125,0.45313 1.32813,0.29687 1.84375,0.73437 0.51563,0.4375 0.51563,1.21875 0,0.85938 -0.71875,1.48438 -0.70313,0.60937 -2.10938,0.60937 -1.26562,0 -2.01562,-0.51562 -0.73438,-0.51563 -0.96875,-1.40625 z m 10.11133,-4.4375 v 1.3125 h -1.125 v 2.5 q 0,0.76562 0.0312,0.89062 0.0312,0.125 0.14062,0.21875 0.125,0.0781 0.28125,0.0781 0.23438,0 0.65625,-0.17188 l 0.14063,1.28125 q -0.5625,0.25 -1.29688,0.25 -0.4375,0 -0.79687,-0.14062 -0.35938,-0.15625 -0.53125,-0.39063 -0.15625,-0.25 -0.23438,-0.64062 -0.0469,-0.29688 -0.0469,-1.17188 v -2.70312 h -0.75 v -1.3125 h 0.75 v -1.23438 l 1.65625,-0.96875 v 2.20313 z m 0.76172,3.01562 q 0,-0.8125 0.40625,-1.57812 0.40625,-0.78125 1.14062,-1.17188 0.73438,-0.40625 1.65625,-0.40625 1.40625,0 2.3125,0.92188 0.90625,0.90625 0.90625,2.3125 0,1.40625 -0.92187,2.34375 -0.90625,0.92187 -2.28125,0.92187 -0.85938,0 -1.64063,-0.39062 -0.76562,-0.39063 -1.17187,-1.125 -0.40625,-0.75 -0.40625,-1.82813 z m 1.6875,0.0937 q 0,0.92188 0.4375,1.42188 0.4375,0.48437 1.07812,0.48437 0.65625,0 1.07813,-0.48437 0.4375,-0.5 0.4375,-1.4375 0,-0.90625 -0.4375,-1.39063 -0.42188,-0.5 -1.07813,-0.5 -0.64062,0 -1.07812,0.5 -0.4375,0.48438 -0.4375,1.40625 z m 5.9707,-3.10937 h 1.53125 v 0.90625 q 0.3125,-0.46875 0.8125,-0.75 0.51562,-0.29688 1.14062,-0.29688 1.07813,0 1.82813,0.84375 0.76562,0.84375 0.76562,2.375 0,1.54688 -0.76562,2.42188 -0.76563,0.85937 -1.84375,0.85937 -0.51563,0 -0.9375,-0.20312 -0.42188,-0.20313 -0.875,-0.70313 v 3.14063 h -1.65625 z m 1.625,3 q 0,1.04687 0.42187,1.54687 0.42188,0.5 1.01563,0.5 0.57812,0 0.95312,-0.45312 0.375,-0.46875 0.375,-1.51563 0,-0.96875 -0.39062,-1.4375 -0.39063,-0.48437 -0.96875,-0.48437 -0.60938,0 -1.01563,0.46875 -0.39062,0.46875 -0.39062,1.375 z" />
  <path
     style="fill:#000000;fill-rule:nonzero"
     inkscape:connector-curvature="0"
     id="path129"
     d="m 160.35634,212.653 2.48437,-8.875 h 0.84375 l -2.48437,8.875 z m 3.70898,-2 1.03125,-0.15625 q 0.0937,0.625 0.48438,0.95312 0.40625,0.32813 1.14062,0.32813 0.71875,0 1.0625,-0.28125 0.35938,-0.29688 0.35938,-0.70313 0,-0.35937 -0.3125,-0.5625 -0.21875,-0.14062 -1.07813,-0.35937 -1.15625,-0.29688 -1.60937,-0.5 -0.4375,-0.21875 -0.67188,-0.59375 -0.23437,-0.375 -0.23437,-0.84375 0,-0.40625 0.1875,-0.76563 0.1875,-0.35937 0.51562,-0.59375 0.25,-0.17187 0.67188,-0.29687 0.42187,-0.125 0.92187,-0.125 0.71875,0 1.26563,0.21875 0.5625,0.20312 0.82812,0.5625 0.26563,0.35937 0.35938,0.95312 l -1.03125,0.14063 q -0.0625,-0.46875 -0.40625,-0.73438 -0.32813,-0.28125 -0.95313,-0.28125 -0.71875,0 -1.03125,0.25 -0.3125,0.23438 -0.3125,0.5625 0,0.20313 0.125,0.35938 0.14063,0.17187 0.40625,0.28125 0.15625,0.0625 0.9375,0.26562 1.125,0.3125 1.5625,0.5 0.4375,0.1875 0.6875,0.54688 0.25,0.35937 0.25,0.90625 0,0.53125 -0.3125,1 -0.29687,0.45312 -0.875,0.71875 -0.57812,0.25 -1.3125,0.25 -1.21875,0 -1.85937,-0.5 -0.625,-0.51563 -0.79688,-1.5 z m 8.71875,0.92187 0.15625,0.92188 q -0.45312,0.0937 -0.79687,0.0937 -0.57813,0 -0.89063,-0.17188 -0.3125,-0.1875 -0.45312,-0.48437 -0.125,-0.29688 -0.125,-1.25 v -3.57813 h -0.76563 v -0.8125 h 0.76563 v -1.54687 l 1.04687,-0.625 v 2.17187 h 1.0625 v 0.8125 h -1.0625 v 3.64063 q 0,0.45312 0.0469,0.57812 0.0625,0.125 0.1875,0.20313 0.125,0.0781 0.35937,0.0781 0.1875,0 0.46875,-0.0312 z m 0.64649,-2.17187 q 0,-1.73438 0.95312,-2.5625 0.79688,-0.6875 1.95313,-0.6875 1.28125,0 2.09375,0.84375 0.82812,0.82812 0.82812,2.3125 0,1.20312 -0.35937,1.89062 -0.35938,0.6875 -1.0625,1.07813 -0.6875,0.375 -1.5,0.375 -1.29688,0 -2.10938,-0.82813 -0.79687,-0.84375 -0.79687,-2.42187 z m 1.07812,0 q 0,1.1875 0.51563,1.78125 0.53125,0.59375 1.3125,0.59375 0.79687,0 1.3125,-0.59375 0.51562,-0.59375 0.51562,-1.8125 0,-1.15625 -0.53125,-1.75 -0.51562,-0.59375 -1.29687,-0.59375 -0.78125,0 -1.3125,0.59375 -0.51563,0.57812 -0.51563,1.78125 z m 5.98633,5.5 v -8.60938 h 0.95313 v 0.79688 q 0.34375,-0.46875 0.76562,-0.70313 0.4375,-0.23437 1.04688,-0.23437 0.79687,0 1.40625,0.40625 0.60937,0.40625 0.90625,1.15625 0.3125,0.75 0.3125,1.64062 0,0.95313 -0.34375,1.71875 -0.32813,0.76563 -0.98438,1.17188 -0.65625,0.40625 -1.375,0.40625 -0.53125,0 -0.95312,-0.21875 -0.42188,-0.23438 -0.6875,-0.5625 v 3.03125 z m 0.95313,-5.46875 q 0,1.20312 0.48437,1.78125 0.48438,0.5625 1.17188,0.5625 0.70312,0 1.20312,-0.59375 0.5,-0.59375 0.5,-1.84375 0,-1.1875 -0.48437,-1.76563 -0.48438,-0.59375 -1.17188,-0.59375 -0.67187,0 -1.1875,0.625 -0.51562,0.625 -0.51562,1.82813 z" />
  <path
     style="fill:#000000;fill-opacity:0;fill-rule:evenodd"
     inkscape:connector-curvature="0"
     id="path131"
     d="M 193.07877,220.77321 H 121.14176" />
  <path
     style="fill-rule:evenodd;stroke:#000000;stroke-width:1;stroke-linecap:butt;stroke-linejoin:round"
     inkscape:connector-curvature="0"
     id="d-stop"
     d="M 193.07877,220.77321 H 127.14176"
     inkscape:label="#path133" />
  <path
     style="fill:#000000;fill-rule:evenodd;stroke:#000000;stroke-width:1;stroke-linecap:butt"
     inkscape:connector-curvature="0"
     id="path135"
     d="m 127.14175,219.12148 -4.5381,1.65173 4.5381,1.65174 z" />
  <path
     style="fill:#000000;fill-opacity:0;fill-rule:evenodd"
     inkscape:connector-curvature="0"
     id="path137"
     d="m 589.5729,169.03986 v 0 c 0,-6.48827 5.14697,-11.74803 11.49603,-11.74803 v 0 c 3.04895,0 5.97303,1.23773 8.12897,3.44092 2.15594,2.20318 3.36713,5.19134 3.36713,8.30711 v 0 c 0,6.48825 -5.14698,11.74803 -11.4961,11.74803 v 0 c -6.34906,0 -11.49603,-5.25978 -11.49603,-11.74803 z" />
  <path
     style="fill-rule:evenodd;stroke:#000000;stroke-width:2;stroke-linecap:butt;stroke-linejoin:round"
     inkscape:connector-curvature="0"
     id="path139"
     d="m 589.5729,169.03986 v 0 c 0,-6.48827 5.14697,-11.74803 11.49603,-11.74803 v 0 c 3.04895,0 5.97303,1.23773 8.12897,3.44092 2.15594,2.20318 3.36713,5.19134 3.36713,8.30711 v 0 c 0,6.48825 -5.14698,11.74803 -11.4961,11.74803 v 0 c -6.34906,0 -11.49603,-5.25978 -11.49603,-11.74803 z" />
  <path
     style="fill:#000000;fill-rule:evenodd"
     inkscape:connector-curvature="0"
     id="path141"
     d="m 594.78467,169.0233 v 0 c 0,-3.60072 2.91895,-6.51968 6.51965,-6.51968 v 0 c 1.72913,0 3.38745,0.6869 4.61011,1.90957 1.22272,1.22267 1.90961,2.88098 1.90961,4.61011 v 0 c 0,3.60072 -2.91895,6.5197 -6.51972,6.5197 v 0 c -3.6007,0 -6.51965,-2.91898 -6.51965,-6.5197 z" />
  <path
     style="fill-rule:evenodd;stroke:#000000;stroke-width:2;stroke-linecap:butt;stroke-linejoin:round"
     inkscape:connector-curvature="0"
     id="path143"
     d="m 594.78467,169.0233 v 0 c 0,-3.60072 2.91895,-6.51968 6.51965,-6.51968 v 0 c 1.72913,0 3.38745,0.6869 4.61011,1.90957 1.22272,1.22267 1.90961,2.88098 1.90961,4.61011 v 0 c 0,3.60072 -2.91895,6.5197 -6.51972,6.5197 v 0 c -3.6007,0 -6.51965,-2.91898 -6.51965,-6.5197 z" />
  <path
     style="fill:#000000;fill-opacity:0;fill-rule:evenodd"
     inkscape:connector-curvature="0"
     id="path145"
     d="m 520.7664,169.03937 h 68.81891" />
  <path
     style="fill-rule:evenodd;stroke:#000000;stroke-width:1;stroke-linecap:butt;stroke-linejoin:round"
     inkscape:connector-curvature="0"
     id="d-exit"
     d="m 520.7664,169.03937 h 62.81891"
     inkscape:label="#path147" />
  <path
     style="fill:#000000;fill-rule:evenodd;stroke:#000000;stroke-width:1;stroke-linecap:butt"
     inkscape:connector-curvature="0"
     id="path149"
     d="m 583.5853,170.6911 4.53809,-1.65173 -4.53809,-1.65174 z" />
  <path
     style="fill:#000000;fill-opacity:0;fill-rule:evenodd"
     inkscape:connector-curvature="0"
     id="path151"
     d="m 521.40686,141.03394 h 77.82678 v 36 h -77.82678 z" />
  <path
     style="fill:#000000;fill-rule:nonzero"
     inkscape:connector-curvature="0"
     id="path153"
     d="m 534.8756,159.56956 1.64062,0.28125 q -0.3125,0.90625 -1,1.375 -0.6875,0.46875 -1.70312,0.46875 -1.625,0 -2.40625,-1.0625 -0.625,-0.84375 -0.625,-2.14063 0,-1.54687 0.8125,-2.42187 0.8125,-0.875 2.04687,-0.875 1.39063,0 2.1875,0.92187 0.8125,0.90625 0.76563,2.79688 h -4.125 q 0.0312,0.73437 0.40625,1.14062 0.375,0.40625 0.95312,0.40625 0.375,0 0.64063,-0.20312 0.26562,-0.21875 0.40625,-0.6875 z m 0.0937,-1.65625 q -0.0156,-0.71875 -0.375,-1.09375 -0.34375,-0.375 -0.85938,-0.375 -0.53125,0 -0.89062,0.39062 -0.34375,0.40625 -0.34375,1.07813 z m 2.18945,3.64062 2.23438,-3.20312 -2.14063,-3.01563 h 2 l 1.10938,1.70313 1.15625,-1.70313 h 1.9375 l -2.10938,2.9375 2.29688,3.28125 h -2.01563 l -1.26562,-1.92187 -1.28125,1.92187 z m 7.45508,-7.0625 v -1.53125 h 1.65625 v 1.53125 z m 0,7.0625 v -6.21875 h 1.65625 v 6.21875 z m 6.19336,-6.21875 v 1.3125 h -1.125 v 2.5 q 0,0.76563 0.0312,0.89063 0.0312,0.125 0.14063,0.21875 0.125,0.0781 0.28125,0.0781 0.23437,0 0.65625,-0.17187 l 0.14062,1.28125 q -0.5625,0.25 -1.29687,0.25 -0.4375,0 -0.79688,-0.14063 -0.35937,-0.15625 -0.53125,-0.39062 -0.15625,-0.25 -0.23437,-0.64063 -0.0469,-0.29687 -0.0469,-1.17187 v -2.70313 h -0.75 v -1.3125 h 0.75 v -1.23437 l 1.65625,-0.96875 v 2.20312 z" />
  <path
     style="fill:#000000;fill-rule:nonzero"
     inkscape:connector-curvature="0"
     id="path155"
     d="m 551.0846,161.69456 2.48438,-8.875 h 0.84375 l -2.48438,8.875 z m 8.38086,-2.14063 1.09375,0.125 q -0.25,0.95313 -0.95313,1.48438 -0.70312,0.53125 -1.78125,0.53125 -1.35937,0 -2.17187,-0.84375 -0.79688,-0.84375 -0.79688,-2.35938 0,-1.5625 0.8125,-2.42187 0.8125,-0.875 2.09375,-0.875 1.25,0 2.03125,0.84375 0.79688,0.84375 0.79688,2.39062 0,0.0937 0,0.28125 h -4.64063 q 0.0625,1.03125 0.57813,1.57813 0.51562,0.53125 1.29687,0.53125 0.57813,0 0.98438,-0.29688 0.42187,-0.3125 0.65625,-0.96875 z m -3.45313,-1.70312 h 3.46875 q -0.0625,-0.79688 -0.39062,-1.1875 -0.51563,-0.60938 -1.3125,-0.60938 -0.73438,0 -1.23438,0.48438 -0.48437,0.48437 -0.53125,1.3125 z m 5.17383,3.70312 2.26563,-3.23437 -2.09375,-2.98438 h 1.3125 l 0.95312,1.45313 q 0.26563,0.42187 0.4375,0.70312 0.25,-0.39062 0.46875,-0.6875 l 1.04688,-1.46875 h 1.26562 l -2.15625,2.92188 2.3125,3.29687 h -1.28125 l -1.28125,-1.9375 -0.34375,-0.51562 -1.64062,2.45312 z m 6.70313,-7.375 v -1.21875 h 1.0625 v 1.21875 z m 0,7.375 v -6.21875 h 1.0625 v 6.21875 z m 4.96289,-0.9375 0.15625,0.92188 q -0.45313,0.0937 -0.79688,0.0937 -0.57812,0 -0.89062,-0.17188 -0.3125,-0.1875 -0.45313,-0.48437 -0.125,-0.29688 -0.125,-1.25 v -3.57813 h -0.76562 v -0.8125 h 0.76562 v -1.54687 l 1.04688,-0.625 v 2.17187 h 1.0625 v 0.8125 h -1.0625 v 3.64063 q 0,0.45312 0.0469,0.57812 0.0625,0.125 0.1875,0.20313 0.125,0.0781 0.35938,0.0781 0.1875,0 0.46875,-0.0312 z" />
  <path
     style="fill:#000000;fill-opacity:0;fill-rule:evenodd"
     inkscape:connector-curvature="0"
     id="path157"
     d="m 100.41991,30.740404 -0.12598,44.34646" />
  <path
     style="fill-rule:evenodd;stroke:#000000;stroke-width:1;stroke-linecap:butt;stroke-linejoin:round"
     inkscape:connector-curvature="0"
     id="d-abort"
     d="m 100.41991,30.740404 -0.10893,38.34648"
     inkscape:label="#path159" />
  <path
     style="fill:#000000;fill-rule:evenodd;stroke:#000000;stroke-width:1;stroke-linecap:butt"
     inkscape:connector-curvature="0"
     id="path161"
     d="m 98.65924,69.08219 1.63883,4.54277 1.66462,-4.533386 z" />
  <path
     style="fill:#000000;fill-opacity:0;fill-rule:evenodd"
     inkscape:connector-curvature="0"
     id="path163"
     d="m 96.91599,32.484493 h 86.01575 V 59.980556 H 96.91599 Z" />
  <path
     style="fill:#000000;fill-rule:nonzero"
     inkscape:connector-curvature="0"
     id="path165"
     d="m 108.00974,48.67637 -1.5,-0.265625 q 0.25,-0.90625 0.85937,-1.328125 0.625,-0.4375 1.84375,-0.4375 1.09375,0 1.625,0.265625 0.54688,0.25 0.76563,0.65625 0.21875,0.390625 0.21875,1.46875 l -0.0156,1.921875 q 0,0.828125 0.0781,1.21875 0.0781,0.375 0.29687,0.828125 h -1.625 q -0.0625,-0.171875 -0.15625,-0.484375 -0.0469,-0.15625 -0.0625,-0.203125 -0.42187,0.421875 -0.90625,0.625 -0.46875,0.203125 -1.01562,0.203125 -0.96875,0 -1.53125,-0.515625 -0.54688,-0.53125 -0.54688,-1.328125 0,-0.53125 0.25,-0.9375 0.26563,-0.40625 0.71875,-0.625 0.45313,-0.234375 1.3125,-0.390625 1.14063,-0.21875 1.59375,-0.40625 v -0.15625 q 0,-0.484375 -0.23437,-0.6875 -0.23438,-0.203125 -0.89063,-0.203125 -0.4375,0 -0.6875,0.171875 -0.23437,0.171875 -0.39062,0.609375 z m 2.20312,1.34375 q -0.3125,0.09375 -1,0.25 -0.6875,0.140625 -0.90625,0.28125 -0.3125,0.234375 -0.3125,0.578125 0,0.34375 0.25,0.609375 0.26563,0.25 0.65625,0.25 0.45313,0 0.85938,-0.296875 0.29687,-0.21875 0.39062,-0.546875 0.0625,-0.203125 0.0625,-0.796875 z m 3.17383,2.984375 v -8.59375 h 1.64063 v 3.09375 q 0.76562,-0.859375 1.8125,-0.859375 1.125,0 1.875,0.828125 0.75,0.8125 0.75,2.359375 0,1.59375 -0.76563,2.453125 -0.76562,0.859375 -1.84375,0.859375 -0.53125,0 -1.04687,-0.265625 -0.51563,-0.265625 -0.89063,-0.796875 v 0.921875 z m 1.625,-3.25 q 0,0.96875 0.3125,1.4375 0.42188,0.65625 1.14063,0.65625 0.53125,0 0.92187,-0.46875 0.39063,-0.46875 0.39063,-1.46875 0,-1.0625 -0.39063,-1.53125 -0.39062,-0.484375 -1,-0.484375 -0.57812,0 -0.98437,0.46875 -0.39063,0.453125 -0.39063,1.390625 z m 5.39258,0.04687 q 0,-0.8125 0.40625,-1.578125 0.40625,-0.78125 1.14063,-1.171875 0.73437,-0.40625 1.65625,-0.40625 1.40625,0 2.3125,0.921875 0.90625,0.90625 0.90625,2.3125 0,1.40625 -0.92188,2.34375 -0.90625,0.921875 -2.28125,0.921875 -0.85937,0 -1.64062,-0.390625 -0.76563,-0.390625 -1.17188,-1.125 -0.40625,-0.75 -0.40625,-1.828125 z m 1.6875,0.09375 q 0,0.921875 0.4375,1.421875 0.4375,0.484375 1.07813,0.484375 0.65625,0 1.07812,-0.484375 0.4375,-0.5 0.4375,-1.4375 0,-0.90625 -0.4375,-1.390625 -0.42187,-0.5 -1.07812,-0.5 -0.64063,0 -1.07813,0.5 -0.4375,0.484375 -0.4375,1.40625 z m 7.59571,3.109375 h -1.64062 v -6.21875 h 1.53125 v 0.875 q 0.39062,-0.625 0.70312,-0.8125 0.3125,-0.203125 0.70313,-0.203125 0.5625,0 1.09375,0.3125 l -0.51563,1.421875 q -0.42187,-0.265625 -0.76562,-0.265625 -0.35938,0 -0.59375,0.203125 -0.23438,0.1875 -0.375,0.6875 -0.14063,0.484375 -0.14063,2.078125 z m 5.95117,-6.21875 v 1.3125 h -1.125 v 2.5 q 0,0.765625 0.0312,0.890625 0.0312,0.125 0.14063,0.21875 0.125,0.07813 0.28125,0.07813 0.23437,0 0.65625,-0.171875 l 0.14062,1.28125 q -0.5625,0.25 -1.29687,0.25 -0.4375,0 -0.79688,-0.140625 -0.35937,-0.15625 -0.53125,-0.390625 -0.15625,-0.25 -0.23437,-0.640625 -0.0469,-0.296875 -0.0469,-1.171875 v -2.703125 h -0.75 v -1.3125 h 0.75 V 45.55137 l 1.65625,-0.96875 v 2.203125 z" />
  <path
     style="fill:#000000;fill-rule:nonzero"
     inkscape:connector-curvature="0"
     id="path167"
     d="m 135.916,53.14512 2.48437,-8.875 h 0.84375 l -2.48437,8.875 z m 8.19336,-0.90625 q -0.59375,0.5 -1.14063,0.703125 -0.53125,0.203125 -1.15625,0.203125 -1.03125,0 -1.57812,-0.5 -0.54688,-0.5 -0.54688,-1.28125 0,-0.453125 0.20313,-0.828125 0.20312,-0.390625 0.54687,-0.609375 0.34375,-0.234375 0.76563,-0.34375 0.29687,-0.09375 0.9375,-0.171875 1.26562,-0.140625 1.875,-0.359375 0,-0.21875 0,-0.265625 0,-0.65625 -0.29688,-0.921875 -0.40625,-0.34375 -1.20312,-0.34375 -0.73438,0 -1.09375,0.265625 -0.35938,0.25 -0.53125,0.90625 l -1.03125,-0.140625 q 0.14062,-0.65625 0.46875,-1.0625 0.32812,-0.40625 0.9375,-0.625 0.60937,-0.21875 1.40625,-0.21875 0.79687,0 1.29687,0.1875 0.5,0.1875 0.73438,0.46875 0.23437,0.28125 0.32812,0.71875 0.0469,0.265625 0.0469,0.96875 v 1.40625 q 0,1.46875 0.0625,1.859375 0.0781,0.390625 0.28125,0.75 h -1.10938 q -0.15625,-0.328125 -0.20312,-0.765625 z m -0.0937,-2.359375 q -0.57813,0.234375 -1.71875,0.40625 -0.65625,0.09375 -0.92188,0.21875 -0.26562,0.109375 -0.42187,0.328125 -0.14063,0.21875 -0.14063,0.5 0,0.421875 0.3125,0.703125 0.32813,0.28125 0.9375,0.28125 0.60938,0 1.07813,-0.265625 0.48437,-0.265625 0.70312,-0.734375 0.17188,-0.359375 0.17188,-1.046875 z m 3.67383,3.125 h -0.98438 v -8.59375 h 1.0625 v 3.0625 q 0.67188,-0.828125 1.70313,-0.828125 0.57812,0 1.07812,0.234375 0.51563,0.21875 0.84375,0.640625 0.34375,0.421875 0.53125,1.015625 0.1875,0.59375 0.1875,1.265625 0,1.59375 -0.79687,2.46875 -0.79688,0.875 -1.89063,0.875 -1.10937,0 -1.73437,-0.921875 z m -0.0156,-3.15625 q 0,1.109375 0.3125,1.609375 0.5,0.8125 1.34375,0.8125 0.6875,0 1.1875,-0.59375 0.51563,-0.59375 0.51563,-1.796875 0,-1.21875 -0.48438,-1.796875 -0.48437,-0.578125 -1.17187,-0.578125 -0.6875,0 -1.20313,0.609375 -0.5,0.59375 -0.5,1.734375 z m 5.33008,0.04687 q 0,-1.734375 0.95313,-2.5625 0.79687,-0.6875 1.95312,-0.6875 1.28125,0 2.09375,0.84375 0.82813,0.828125 0.82813,2.3125 0,1.203125 -0.35938,1.890625 -0.35937,0.6875 -1.0625,1.078125 -0.6875,0.375 -1.5,0.375 -1.29687,0 -2.10937,-0.828125 -0.79688,-0.84375 -0.79688,-2.421875 z m 1.07813,0 q 0,1.1875 0.51562,1.78125 0.53125,0.59375 1.3125,0.59375 0.79688,0 1.3125,-0.59375 0.51563,-0.59375 0.51563,-1.8125 0,-1.15625 -0.53125,-1.75 -0.51563,-0.59375 -1.29688,-0.59375 -0.78125,0 -1.3125,0.59375 -0.51562,0.578125 -0.51562,1.78125 z m 5.9707,3.109375 v -6.21875 h 0.95312 v 0.9375 q 0.35938,-0.65625 0.65625,-0.859375 0.3125,-0.21875 0.6875,-0.21875 0.53125,0 1.07813,0.328125 l -0.35938,0.984375 q -0.39062,-0.234375 -0.76562,-0.234375 -0.35938,0 -0.64063,0.21875 -0.26562,0.203125 -0.375,0.578125 -0.1875,0.5625 -0.1875,1.21875 v 3.265625 z m 6.30859,-0.9375 0.15625,0.921875 q -0.45312,0.09375 -0.79687,0.09375 -0.57813,0 -0.89063,-0.171875 -0.3125,-0.1875 -0.45312,-0.484375 -0.125,-0.296875 -0.125,-1.25 V 47.59824 h -0.76563 v -0.8125 h 0.76563 v -1.54687 l 1.04687,-0.625 v 2.171875 h 1.0625 v 0.8125 h -1.0625 v 3.640625 q 0,0.453125 0.0469,0.578125 0.0625,0.125 0.1875,0.203125 0.125,0.07813 0.35937,0.07813 0.1875,0 0.46875,-0.03125 z" />
  <path
     style="fill:#000000;fill-rule:evenodd"
     inkscape:connector-curvature="0"
     id="path169"
     d="m 54.13259,72.84834 v 0 c 0,-3.600723 2.918964,-6.519684 6.519684,-6.519684 v 0 c 1.72913,0 3.387436,0.68689 4.610115,1.909569 1.222679,1.222679 1.909569,2.880989 1.909569,4.610115 v 0 c 0,3.600723 -2.918961,6.519684 -6.519684,6.519684 v 0 c -3.60072,0 -6.519684,-2.918961 -6.519684,-6.519684 z" />
  <path
     style="fill-rule:evenodd;stroke:#000000;stroke-width:2;stroke-linecap:butt;stroke-linejoin:round"
     inkscape:connector-curvature="0"
     id="path171"
     d="m 54.13259,72.84834 v 0 c 0,-3.600723 2.918964,-6.519684 6.519684,-6.519684 v 0 c 1.72913,0 3.387436,0.68689 4.610115,1.909569 1.222679,1.222679 1.909569,2.880989 1.909569,4.610115 v 0 c 0,3.600723 -2.918961,6.519684 -6.519684,6.519684 v 0 c -3.60072,0 -6.519684,-2.918961 -6.519684,-6.519684 z" />
  <path
     style="fill:#000000;fill-opacity:0;fill-rule:evenodd"
     inkscape:connector-curvature="0"
     id="path173"
     d="M 61.630394,77.469734 79.866615,95.705955" />
  <path
     style="fill-rule:evenodd;stroke:#000000;stroke-width:1;stroke-linecap:butt;stroke-linejoin:round"
     inkscape:connector-curvature="0"
     id="path175"
     d="M 61.630394,77.469734 75.623978,91.463318" />
  <path
     style="fill:#000000;fill-rule:evenodd;stroke:#000000;stroke-width:1;stroke-linecap:butt"
     inkscape:connector-curvature="0"
     id="path177"
     d="m 74.456024,92.63126 4.376869,2.04097 -2.04097,-4.376869 z" />
  <path
     style="fill:#000000;fill-opacity:0;fill-rule:evenodd"
     inkscape:connector-curvature="0"
     id="path179"
     d="m 199.30186,225.41402 h 30.29921 v 74.26771 h -30.29921 z" />
  <path
     style="fill:#1155cc;fill-rule:nonzero"
     inkscape:connector-curvature="0"
     id="path181"
     d="m 213.72115,248.92174 v -7.875 h 1.59375 v 7.875 z" />
  <path
     style="fill:#1155cc;fill-rule:nonzero"
     inkscape:connector-curvature="0"
     id="path183"
     d="m 211.40054,254.04674 h 2.90625 q 0.98437,0 1.5,0.15625 0.6875,0.20312 1.17187,0.71875 0.5,0.51562 0.75,1.28123 0.26563,0.75 0.26563,1.85938 0,0.96875 -0.23438,1.67187 -0.29687,0.85938 -0.84375,1.39063 -0.42187,0.40625 -1.125,0.625 -0.51562,0.17187 -1.40625,0.17187 h -2.98437 z m 1.59375,1.32812 v 5.21874 h 1.1875 q 0.65625,0 0.95312,-0.0781 0.39063,-0.0937 0.64063,-0.3125 0.26562,-0.23437 0.42187,-0.76562 0.15625,-0.53125 0.15625,-1.45313 0,-0.90625 -0.15625,-1.39062 -0.15625,-0.5 -0.45312,-0.76561 -0.29688,-0.28125 -0.73438,-0.375 -0.32812,-0.0781 -1.3125,-0.0781 z" />
  <path
     style="fill:#1155cc;fill-rule:nonzero"
     inkscape:connector-curvature="0"
     id="path185"
     d="m 212.04059,274.92172 v -7.8125 h 1.59375 v 6.48437 h 3.95312 v 1.32813 z" />
  <path
     style="fill:#1155cc;fill-rule:nonzero"
     inkscape:connector-curvature="0"
     id="path187"
     d="m 211.69452,287.92172 v -7.875 h 5.84375 v 1.32812 h -4.25 v 1.75 h 3.95312 v 1.32813 h -3.95312 v 2.14062 h 4.40625 v 1.32813 z" />
  <path
     style="fill:#000000;fill-opacity:0;fill-rule:evenodd"
     inkscape:connector-curvature="0"
     id="path189"
     d="m 84.6785,93.29077 h 30.29921 v 83.37009 H 84.6785 Z" />
  <path
     style="fill:#1155cc;fill-rule:nonzero"
     inkscape:connector-curvature="0"
     id="path191"
     d="m 99.09778,125.90085 v -7.875 h 1.59375 v 7.875 z" />
  <path
     style="fill:#1155cc;fill-rule:nonzero"
     inkscape:connector-curvature="0"
     id="path193"
     d="m 96.777176,131.02585 h 2.90625 q 0.984374,0 1.500004,0.15625 0.6875,0.20312 1.17187,0.71875 0.5,0.51562 0.75,1.28125 0.26563,0.75 0.26563,1.85937 0,0.96875 -0.23438,1.67188 -0.29687,0.85937 -0.84375,1.39062 -0.42187,0.40625 -1.125,0.625 -0.51562,0.17188 -1.406249,0.17188 h -2.984375 z m 1.59375,1.32812 v 5.21875 h 1.1875 q 0.656254,0 0.953124,-0.0781 0.39063,-0.0937 0.64063,-0.3125 0.26562,-0.23438 0.42187,-0.76563 0.15625,-0.53125 0.15625,-1.45312 0,-0.90625 -0.15625,-1.39063 -0.15625,-0.5 -0.45312,-0.76562 -0.29688,-0.28125 -0.73438,-0.375 -0.32812,-0.0781 -1.312499,-0.0781 z" />
  <path
     style="fill:#1155cc;fill-rule:nonzero"
     inkscape:connector-curvature="0"
     id="path195"
     d="m 97.41722,151.90085 v -7.8125 h 1.59375 v 6.48437 h 3.95313 v 1.32813 z" />
  <path
     style="fill:#1155cc;fill-rule:nonzero"
     inkscape:connector-curvature="0"
     id="path197"
     d="m 97.07116,164.90085 v -7.875 h 5.84375 v 1.32812 h -4.25 v 1.75 h 3.95313 v 1.32813 h -3.95313 v 2.14062 h 4.40625 v 1.32813 z" />
  <path
     style="fill:#000000;fill-opacity:0;fill-rule:evenodd"
     inkscape:connector-curvature="0"
     id="path199"
     d="m 343.53543,71.43279 h 30.29922 v 146.07874 h -30.29922 z" />
  <path
     style="fill:#1155cc;fill-rule:nonzero"
     inkscape:connector-curvature="0"
     id="path201"
     d="m 355.57797,127.75153 -1.89063,-7.875 h 1.64063 l 1.1875,5.40625 1.4375,-5.40625 h 1.89062 l 1.375,5.5 1.20313,-5.5 h 1.60937 l -1.92187,7.875 h -1.6875 l -1.5625,-5.89062 -1.5625,5.89062 z" />
  <path
     style="fill:#1155cc;fill-rule:nonzero"
     inkscape:connector-curvature="0"
     id="path203"
     d="m 355.02502,136.86092 q 0,-1.20313 0.35937,-2.01563 0.26563,-0.60937 0.71875,-1.07812 0.46875,-0.48438 1.03125,-0.71875 0.73438,-0.3125 1.6875,-0.3125 1.75,0 2.78125,1.09375 1.04688,1.07812 1.04688,3 0,1.90625 -1.03125,2.98437 -1.03125,1.07813 -2.76563,1.07813 -1.76562,0 -2.79687,-1.07813 -1.03125,-1.07812 -1.03125,-2.95312 z m 1.625,-0.0469 q 0,1.32813 0.625,2.03125 0.625,0.6875 1.5625,0.6875 0.95312,0 1.5625,-0.6875 0.60937,-0.6875 0.60937,-2.0625 0,-1.34375 -0.59375,-2.01562 -0.59375,-0.67188 -1.57812,-0.67188 -0.98438,0 -1.59375,0.6875 -0.59375,0.67188 -0.59375,2.03125 z" />
  <path
     style="fill:#1155cc;fill-rule:nonzero"
     inkscape:connector-curvature="0"
     id="path205"
     d="m 355.64975,153.75154 v -7.875 h 3.34375 q 1.26562,0 1.82812,0.21875 0.57813,0.20312 0.92188,0.75 0.34375,0.54687 0.34375,1.23437 0,0.89063 -0.53125,1.46875 -0.51563,0.57813 -1.54688,0.73438 0.51563,0.29687 0.84375,0.65625 0.34375,0.35937 0.90625,1.28125 l 0.96875,1.53125 h -1.90625 l -1.15625,-1.71875 q -0.60937,-0.90625 -0.84375,-1.14063 -0.21875,-0.25 -0.46875,-0.32812 -0.25,-0.0937 -0.79687,-0.0937 h -0.32813 v 3.28125 z m 1.57812,-4.54688 h 1.1875 q 1.14063,0 1.42188,-0.0937 0.28125,-0.0937 0.4375,-0.32812 0.17187,-0.23438 0.17187,-0.59375 0,-0.40625 -0.21875,-0.64063 -0.20312,-0.25 -0.59375,-0.3125 -0.1875,-0.0312 -1.15625,-0.0312 h -1.25 z" />
  <path
     style="fill:#1155cc;fill-rule:nonzero"
     inkscape:connector-curvature="0"
     id="path207"
     d="m 355.66537,166.75154 v -7.875 h 1.57812 v 3.5 l 3.21875,-3.5 h 2.14063 l -2.96875,3.0625 3.125,4.8125 h -2.0625 l -2.15625,-3.70313 -1.29688,1.32813 v 2.375 z" />
  <path
     style="fill:#1155cc;fill-rule:nonzero"
     inkscape:connector-curvature="0"
     id="path209"
     d="m 357.9547,179.75154 v -7.875 h 1.59375 v 7.875 z" />
  <path
     style="fill:#1155cc;fill-rule:nonzero"
     inkscape:connector-curvature="0"
     id="path211"
     d="m 355.64975,192.75154 v -7.875 h 1.54687 l 3.23438,5.26562 v -5.26562 h 1.46875 v 7.875 H 360.306 l -3.17188,-5.14063 v 5.14063 z" />
  <path
     style="fill:#1155cc;fill-rule:nonzero"
     inkscape:connector-curvature="0"
     id="path213"
     d="m 359.0094,202.86092 v -1.32813 h 3.42188 v 3.14063 q -0.5,0.46875 -1.45313,0.84375 -0.9375,0.375 -1.92187,0.375 -1.23438,0 -2.15625,-0.51563 -0.90625,-0.53125 -1.375,-1.48437 -0.45313,-0.96875 -0.45313,-2.10938 0,-1.21875 0.51563,-2.17187 0.51562,-0.96875 1.5,-1.46875 0.76562,-0.40625 1.89062,-0.40625 1.46875,0 2.28125,0.625 0.82813,0.60937 1.0625,1.70312 l -1.57812,0.29688 q -0.15625,-0.59375 -0.625,-0.92188 -0.45313,-0.34375 -1.14063,-0.34375 -1.04687,0 -1.65625,0.67188 -0.60937,0.65625 -0.60937,1.95312 0,1.40625 0.60937,2.10938 0.625,0.70312 1.64063,0.70312 0.5,0 1,-0.1875 0.5,-0.20312 0.85937,-0.48437 v -1 z" />
  <path
     style="fill:#000000;fill-opacity:0;fill-rule:evenodd"
     inkscape:connector-curvature="0"
     id="path215"
     d="m 473.15753,89.824425 h 30.29919 V 173.1945 h -30.29919 z" />
  <path
     style="fill:#1155cc;fill-rule:nonzero"
     inkscape:connector-curvature="0"
     id="path217"
     d="m 487.5768,122.4345 v -7.875 h 1.59375 v 7.875 z" />
  <path
     style="fill:#1155cc;fill-rule:nonzero"
     inkscape:connector-curvature="0"
     id="path219"
     d="m 485.2562,127.5595 h 2.90625 q 0.98437,0 1.5,0.15625 0.6875,0.20313 1.17187,0.71874 0.5,0.51563 0.75,1.28125 0.26563,0.75 0.26563,1.85938 0,0.96875 -0.23438,1.67187 -0.29687,0.85938 -0.84375,1.39063 -0.42187,0.40625 -1.125,0.625 -0.51562,0.17187 -1.40625,0.17187 h -2.98437 z m 1.59375,1.32812 v 5.21875 h 1.1875 q 0.65625,0 0.95312,-0.0781 0.39063,-0.0937 0.64063,-0.3125 0.26562,-0.23437 0.42187,-0.76562 0.15625,-0.53125 0.15625,-1.45313 0,-0.90625 -0.15625,-1.39062 -0.15625,-0.5 -0.45312,-0.76563 -0.29688,-0.28125 -0.73438,-0.375 -0.32812,-0.0781 -1.3125,-0.0781 z" />
  <path
     style="fill:#1155cc;fill-rule:nonzero"
     inkscape:connector-curvature="0"
     id="path221"
     d="m 485.89624,148.4345 v -7.8125 h 1.59375 v 6.48438 h 3.95312 v 1.32812 z" />
  <path
     style="fill:#1155cc;fill-rule:nonzero"
     inkscape:connector-curvature="0"
     id="path223"
     d="m 485.55017,161.4345 v -7.875 h 5.84375 v 1.32813 h -4.25 v 1.75 h 3.95312 v 1.32812 h -3.95312 v 2.14063 h 4.40625 v 1.32812 z" />
  <path
     style="fill:#000000;fill-opacity:0;fill-rule:evenodd"
     inkscape:connector-curvature="0"
     id="path225"
     d="m 341.56674,78.78215 h 37.44879 v 37.57481 h -37.44879 z" />
  <path
     style="fill:#000000;fill-rule:nonzero"
     inkscape:connector-curvature="0"
     id="path227"
     d="m 350.92612,99.6434 2.0625,-0.3125 q 0.125,0.59375 0.53125,0.90625 0.40625,0.3125 1.125,0.3125 0.79688,0 1.20313,-0.29687 0.26562,-0.20313 0.26562,-0.54688 0,-0.234375 -0.14062,-0.390625 -0.15625,-0.140625 -0.6875,-0.265625 -2.48438,-0.546875 -3.15625,-1 -0.92188,-0.640625 -0.92188,-1.75 0,-1.015625 0.79688,-1.703125 0.79687,-0.6875 2.46875,-0.6875 1.60937,0 2.375,0.515625 0.78125,0.515625 1.07812,1.546875 L 355.973,96.3309 q -0.125,-0.453125 -0.46875,-0.6875 -0.34375,-0.25 -0.98438,-0.25 -0.8125,0 -1.17187,0.21875 -0.23438,0.15625 -0.23438,0.421875 0,0.21875 0.20313,0.375 0.28125,0.203125 1.92187,0.578125 1.65625,0.375 2.29688,0.90625 0.65625,0.5625 0.65625,1.53125 0,1.07813 -0.90625,1.84375 -0.89063,0.76563 -2.64063,0.76563 -1.59375,0 -2.51562,-0.64063 -0.92188,-0.64062 -1.20313,-1.75 z m 15.38547,0.3125 v 1.90625 h -7.21875 q 0.10937,-1.07812 0.6875,-2.046875 0.59375,-0.984375 2.32812,-2.578125 1.39063,-1.296875 1.70313,-1.765625 0.42187,-0.640625 0.42187,-1.25 0,-0.6875 -0.375,-1.0625 -0.35937,-0.375 -1.01562,-0.375 -0.64063,0 -1.03125,0.390625 -0.375,0.390625 -0.42188,1.296875 l -2.0625,-0.21875 q 0.1875,-1.6875 1.15625,-2.421875 0.96875,-0.75 2.42188,-0.75 1.57812,0 2.48437,0.859375 0.92188,0.859375 0.92188,2.125 0,0.734375 -0.26563,1.390625 -0.26562,0.65625 -0.82812,1.359375 -0.375,0.484375 -1.34375,1.375 -0.96875,0.890625 -1.23438,1.1875 -0.26562,0.296875 -0.42187,0.578125 z" />
  <path
     style="fill:#000000;fill-opacity:0;fill-rule:evenodd"
     inkscape:connector-curvature="0"
     id="path229"
     d="m 470.44324,78.28346 h 37.44882 v 33.10236 h -37.44882 z" />
  <path
     style="fill:#000000;fill-rule:nonzero"
     inkscape:connector-curvature="0"
     id="path231"
     d="m 479.8026,99.144714 2.0625,-0.3125 q 0.125,0.59375 0.53125,0.90625 0.40625,0.312496 1.125,0.312496 0.79687,0 1.20312,-0.296871 0.26563,-0.203125 0.26563,-0.546875 0,-0.234375 -0.14063,-0.390625 -0.15625,-0.140625 -0.6875,-0.265625 -2.48437,-0.546875 -3.15625,-1 -0.92187,-0.640625 -0.92187,-1.75 0,-1.015625 0.79687,-1.703125 0.79688,-0.6875 2.46875,-0.6875 1.60938,0 2.375,0.515625 0.78125,0.515625 1.07813,1.546875 l -1.95313,0.359375 q -0.125,-0.453125 -0.46875,-0.6875 -0.34375,-0.25 -0.98437,-0.25 -0.8125,0 -1.17188,0.21875 -0.23437,0.15625 -0.23437,0.421875 0,0.21875 0.20312,0.375 0.28125,0.203125 1.92188,0.578125 1.65625,0.375 2.29687,0.90625 0.65625,0.5625 0.65625,1.53125 0,1.078126 -0.90625,1.843746 -0.89062,0.76563 -2.64062,0.76563 -1.59375,0 -2.51563,-0.64063 -0.92187,-0.64062 -1.20312,-1.749996 z m 8.35425,-0.625 2,-0.25 q 0.0937,0.765625 0.5,1.171875 0.42187,0.390625 1.01562,0.390625 0.64063,0 1.07813,-0.46875 0.4375,-0.484375 0.4375,-1.3125 0,-0.78125 -0.42188,-1.234375 -0.42187,-0.453125 -1.01562,-0.453125 -0.40625,0 -0.95313,0.15625 l 0.23438,-1.671875 q 0.82812,0.01563 1.26562,-0.359375 0.45313,-0.390625 0.45313,-1.03125 0,-0.53125 -0.32813,-0.859375 -0.32812,-0.328125 -0.85937,-0.328125 -0.53125,0 -0.90625,0.375 -0.35938,0.359375 -0.45313,1.0625 l -1.89062,-0.3125 q 0.20312,-0.984375 0.59375,-1.5625 0.40625,-0.578125 1.10937,-0.90625 0.71875,-0.34375 1.60938,-0.34375 1.51562,0 2.42187,0.96875 0.76563,0.78125 0.76563,1.78125 0,1.421875 -1.54688,2.265625 0.92188,0.1875 1.46875,0.875 0.5625,0.6875 0.5625,1.671875 0,1.40625 -1.04687,2.406246 -1.03125,1 -2.5625,1 -1.45313,0 -2.42188,-0.84375 -0.95312,-0.843746 -1.10937,-2.187496 z" />
  <path
     style="fill:#000000;fill-opacity:0;fill-rule:evenodd"
     inkscape:connector-curvature="0"
     id="path233"
     d="m 197.05923,202.92651 h 37.44882 v 33.10236 h -37.44882 z" />
  <path
     style="fill:#000000;fill-rule:nonzero"
     inkscape:connector-curvature="0"
     id="path235"
     d="m 206.41861,223.78777 2.0625,-0.3125 q 0.125,0.59375 0.53125,0.90625 0.40625,0.3125 1.125,0.3125 0.79687,0 1.20312,-0.29688 0.26563,-0.20312 0.26563,-0.54687 0,-0.23438 -0.14063,-0.39063 -0.15625,-0.14062 -0.6875,-0.26562 -2.48437,-0.54688 -3.15625,-1 -0.92187,-0.64063 -0.92187,-1.75 0,-1.01563 0.79687,-1.70313 0.79688,-0.6875 2.46875,-0.6875 1.60938,0 2.375,0.51563 0.78125,0.51562 1.07813,1.54687 l -1.95313,0.35938 q -0.125,-0.45313 -0.46875,-0.6875 -0.34375,-0.25 -0.98437,-0.25 -0.8125,0 -1.17188,0.21875 -0.23437,0.15625 -0.23437,0.42187 0,0.21875 0.20312,0.375 0.28125,0.20313 1.92188,0.57813 1.65625,0.375 2.29687,0.90625 0.65625,0.5625 0.65625,1.53125 0,1.07812 -0.90625,1.84375 -0.89062,0.76562 -2.64062,0.76562 -1.59375,0 -2.51563,-0.64062 -0.92187,-0.64063 -1.20312,-1.75 z m 12.46361,2.21875 v -2.15625 h -4.39063 v -1.8125 l 4.65625,-6.8125 h 1.73438 v 6.8125 h 1.32812 v 1.8125 h -1.32812 v 2.15625 z m 0,-3.96875 v -3.67188 l -2.46875,3.67188 z" />
  <path
     style="fill:#000000;fill-opacity:0;fill-rule:evenodd"
     inkscape:connector-curvature="0"
     id="path237"
     d="m 82.85262,78.50131 h 37.44882 v 33.10236 H 82.85262 Z" />
  <path
     style="fill:#000000;fill-rule:nonzero"
     inkscape:connector-curvature="0"
     id="path239"
     d="m 92.212,99.362564 2.0625,-0.3125 q 0.125,0.59375 0.53125,0.90625 0.40625,0.312496 1.125,0.312496 0.796875,0 1.203125,-0.296871 0.265625,-0.203125 0.265625,-0.546875 0,-0.234375 -0.140625,-0.390625 -0.15625,-0.140625 -0.6875,-0.265625 -2.484375,-0.546875 -3.15625,-1 -0.921875,-0.640625 -0.921875,-1.75 0,-1.015625 0.796875,-1.703125 0.796875,-0.6875 2.46875,-0.6875 1.609375,0 2.375,0.515625 0.78125,0.515625 1.078125,1.546875 l -1.953125,0.359375 q -0.125,-0.453125 -0.46875,-0.6875 -0.34375,-0.25 -0.984375,-0.25 -0.8125,0 -1.171875,0.21875 -0.234375,0.15625 -0.234375,0.421875 0,0.21875 0.203125,0.375 0.28125,0.203125 1.921875,0.578125 1.65625,0.375 2.296875,0.90625 0.65625,0.5625 0.65625,1.53125 0,1.078126 -0.90625,1.843746 -0.890625,0.76563 -2.640625,0.76563 -1.59375,0 -2.515625,-0.64063 Q 92.49325,100.47194 92.212,99.362564 Z m 13.69798,2.218746 h -2.0625 v -7.749996 q -1.125,1.046875 -2.65625,1.546875 v -1.859375 q 0.8125,-0.265625 1.75,-1 0.9375,-0.734375 1.29688,-1.71875 h 1.67187 z" />
  <path
     style="fill:#000000;fill-opacity:0;fill-rule:evenodd"
     inkscape:connector-curvature="0"
     id="path241"
     d="m 389.64304,249.45932 -9.92127,-0.063" />
  <path
     style="fill-rule:evenodd;stroke:#000000;stroke-width:1;stroke-linecap:butt;stroke-linejoin:round"
     inkscape:connector-curvature="0"
     id="path243"
     d="m 389.64304,249.45932 -3.92139,-0.0249" />
  <path
     style="fill:#000000;fill-rule:evenodd;stroke:#000000;stroke-width:1;stroke-linecap:butt"
     inkscape:connector-curvature="0"
     id="path245"
     d="m 385.73215,247.78271 -4.54849,1.62289 4.52752,1.68052 z" />
</svg>

